<svg t="1624671919529" class="icon" viewBox="0 0 1024 1024" version="1.1" xmlns="http://www.w3.org/2000/svg" p-id="3761" width="32" height="32"><path d="M491.3152 62.0544a34.9696 34.9696 0 0 1 41.3696 0l420.096 305.5104c27.5968 20.224 13.4656 63.8464-20.5824 63.8464v-0.0512h-68.1984v411.4944h79.2064c0.9728 0 1.8944 0.1536 2.7648 0.4096l-4.7616-0.4096c17.408 0.7168 26.1632 13.2096 26.1632 37.376 0 21.5552-6.9632 33.792-20.8896 36.7104a8.704 8.704 0 0 1-3.2768 0.6656H80.7936a8.7552 8.7552 0 0 1-4.352-1.1776c-13.1584-4.5568-19.7632-16.64-19.7632-36.1984 0-21.6576 8.0384-34.0992 24.1152-37.376l-4.608 1.1776a8.7552 8.7552 0 0 1 4.608-1.28h79.2064V431.4112H92.0064a35.2768 35.2768 0 0 1-20.6848-63.8464z m-123.392 369.4592H239.1552v411.3408h128.6656V431.5136z m207.872 0H447.0784v411.3408h128.7168V431.5136z m208.9984 0h-129.792v411.3408h129.792V431.5136zM512 139.52L213.8112 356.5056h596.4288L512 139.52z" p-id="3762"></path></svg>