<svg t="1624247028289" class="icon" viewBox="0 0 1024 1024" version="1.1" xmlns="http://www.w3.org/2000/svg" p-id="4685" width="32" height="32"><path d="M797.5424 56.7296c50.176 0 91.0336 40.8576 91.0336 91.0336v212.5312a35.2256 35.2256 0 0 1-70.4 0v-212.48a20.9408 20.9408 0 0 0-20.6336-20.6848H206.336a20.9408 20.9408 0 0 0-20.6848 20.6336V877.056c0 11.1616 9.472 20.6336 20.6848 20.6336h164.6592a35.2256 35.2256 0 0 1 0 70.4H206.3872a91.136 91.136 0 0 1-91.0848-91.0336V147.7632c0-50.176 40.8576-91.0336 91.0848-91.0336h591.1552z m42.1376 364.2368l119.296 106.2912a47.104 47.104 0 0 1 3.2768 66.4064l-72.704 82.432a35.1744 35.1744 0 0 1-29.7472 11.7248l-2.0992 0.1536a35.072 35.072 0 0 1-25.2928-10.752l-98.6112-101.6832-194.1504 218.0096c0.1536 1.6896 0.256 3.3792 0.256 5.12l1.8432 85.504 74.8544-8.5504 3.584-3.7888 0.256-0.3072 148.48-163.2256a35.2256 35.2256 0 0 1 52.1216 47.4112l-148.4288 163.072c-3.584 4.096-9.1136 9.8304-15.2064 14.7456-13.824 11.264-26.112 13.5168-35.7376 12.3904l-148.6336 17.0496-3.4816-161.28c-6.0416-19.1488 3.1744-38.912 14.2848-51.3536l289.4336-324.9152a47.872 47.872 0 0 1 31.232-15.872 46.3872 46.3872 0 0 1 35.1744 11.4176z m-334.4384 162.6112a35.2256 35.2256 0 0 1 0 70.4h-207.872a35.2256 35.2256 0 0 1 0-70.4h207.872z m305.408-94.208l-29.9008 33.4848 78.592 80.9984 35.1744-39.7824-83.8656-74.752zM606.464 407.552a35.2256 35.2256 0 0 1 0 70.4H296.2432a35.2256 35.2256 0 0 1 0-70.4h310.2208z m48.384-172.4416a35.2256 35.2256 0 0 1 0 70.4H295.936a35.2256 35.2256 0 0 1 0-70.4h358.8608z" p-id="4686"></path></svg>