<svg t="1624671957502" class="icon" viewBox="0 0 1024 1024" version="1.1" xmlns="http://www.w3.org/2000/svg" p-id="3893" width="32" height="32"><path d="M797.1328 113.92H226.816a156.8768 156.8768 0 0 0-158.3616 158.4128v443.4944a156.8768 156.8768 0 0 0 158.3616 158.4128H797.184a156.8768 156.8768 0 0 0 158.4128-158.4128V272.384a156.8768 156.8768 0 0 0-158.4128-158.4128z m95.0272 601.9072c0 50.688-44.3392 95.0784-95.0272 95.0784H226.816c-50.688 0-95.0272-44.3904-95.0272-95.0784V367.36h760.32v348.4672z m0-411.8016H131.84v-31.744c0-50.688 44.3392-94.976 95.0272-94.976H797.184c50.688 0 95.0272 44.3392 95.0272 95.0272v31.6928z m-253.44 316.7744c-18.9952 0-31.6928 12.6976-31.6928 31.6928s12.6976 31.6928 31.6928 31.6928h126.72c18.9952 0 31.6928-12.6976 31.6928-31.744 0-18.944-12.6976-31.6416-31.6928-31.6416h-126.72z" p-id="3894"></path></svg>