<svg t="1624887060351" class="icon" viewBox="0 0 1024 1024" version="1.1" xmlns="http://www.w3.org/2000/svg" p-id="4015" width="32" height="32"><path d="M765.7472 545.9456c-112.9472 0-204.8 91.904-204.8 204.8s91.8528 204.8 204.8 204.8c112.896 0 204.8-91.904 204.8-204.8s-91.904-204.8-204.8-204.8z m-143.2064 204.8v-3.6864c0.8704-36.864 15.7184-71.3216 41.9328-97.5872 27.136-26.9824 62.976-41.9328 101.2736-41.9328a142.6432 142.6432 0 0 1 81.7152 26.2144l-205.824 187.8016a143.0528 143.0528 0 0 1-19.0976-70.8096z m244.4288 101.2224a142.336 142.336 0 0 1-101.2224 41.984 142.4896 142.4896 0 0 1-81.92-26.368l206.08-187.6992a141.824 141.824 0 0 1-22.9376 172.0832z m-263.0656-259.4816l0.3584-0.9216c0.9216 0.1536 1.8944 0.4096 2.9184 0.4096 11.264 5.4272 25.088 3.7888 34.7136-4.608a31.8464 31.8464 0 1 0-15.9744-55.5008l-2.0992-0.7168-1.28-0.4096-1.1776-0.3584-0.512-0.256-0.6144-0.1536c-2.6624-1.024-5.3248-1.8944-8.0896-2.8672a254.3616 254.3616 0 0 0 81.8688-83.6608c23.1936-38.4 35.328-82.6368 35.328-127.744a249.6 249.6 0 0 0-74.9056-175.104 249.344 249.344 0 0 0-176.128-72.0896c-66.4064 0-129.024 25.6-176.2816 72.192a249.9072 249.9072 0 0 0-74.8544 175.2576c0 88.832 47.36 170.496 124.416 215.552a376.32 376.32 0 0 0-168.448 128.768 377.2416 377.2416 0 0 0-73.216 210.944l-0.256 5.632h0.4096a32.3584 32.3584 0 0 0 31.9488 28.7232c19.7632 0 35.584-12.3904 37.4784-28.7232h0.1536l0.256-5.2224c6.656-168.6528 139.1104-295.936 307.7632-295.936 34.9696 0 75.264 1.1776 111.104 14.848l5.12 1.9456zM478.3104 501.6064a185.7536 185.7536 0 0 1 0-371.4048 185.7536 185.7536 0 0 1 0 371.4048z" p-id="4016"></path></svg>