<svg t="1623911022302" class="icon" viewBox="0 0 1024 1024" version="1.1" xmlns="http://www.w3.org/2000/svg" p-id="3951" width="32" height="32"><path d="M931.541333 755.029333l1.152 1.109334a32.768 32.768 0 0 1 0 47.701333l-178.218666 167.936a35.029333 35.029333 0 0 1-25.002667 9.557333 35.029333 35.029333 0 0 1-25.002667-9.557333l-102.314666-96.512a32.768 32.768 0 0 1 0-47.658667l1.194666-1.152c13.525333-12.757333 34.645333-12.757333 48.213334 0l77.909333 73.514667 153.813333-144.981333c13.525333-12.8 34.688-12.8 48.213334 0zM791.04 42.666667a128.853333 128.853333 0 0 1 128.853333 128.853333v433.365333a35.157333 35.157333 0 0 1-70.314666 0V171.52c0-32.341333-26.197333-58.581333-58.538667-58.581333H228.778667c-32.341333 0-58.538667 26.24-58.538667 58.581333v679.381333c0 32.341333 26.197333 58.538667 58.538667 58.538667h257.706666a35.157333 35.157333 0 1 1 0 70.272h-257.706666a128.853333 128.853333 0 0 1-128.853334-128.853333V171.52A128.853333 128.853333 0 0 1 228.778667 42.666667H791.04z m-234.24 503.68a35.157333 35.157333 0 1 1 0 70.272H322.432a35.157333 35.157333 0 0 1 0-70.272h234.282667z m140.501333-187.434667a35.157333 35.157333 0 1 1 0 70.272H322.474667a35.157333 35.157333 0 0 1 0-70.272h374.826666z" p-id="3952"></path></svg>