<?xml version="1.0" encoding="UTF-8"?>
<svg width="20px" height="20px" viewBox="0 0 20 20" version="1.1" xmlns="http://www.w3.org/2000/svg" xmlns:xlink="http://www.w3.org/1999/xlink">
    <title>买入</title>
    <g id="页面-4" stroke="none" stroke-width="1" fill="none" fill-rule="evenodd">
        <g id="首页-改8" transform="translate(-435.000000, -256.000000)" fill="#FFFFFF">
            <g id="编组-2" transform="translate(420.000000, 250.000000)">
                <g id="买入" transform="translate(15.000000, 6.000000)">
                    <rect id="矩形" fill-opacity="0.01" x="0" y="0" width="20" height="20"></rect>
                    <g id="加减分管理" fill-rule="nonzero">
                        <path d="M9.99999969,-2.55455774e-07 C15.5228472,-2.55455774e-07 19.9999997,4.47715225 19.9999997,9.99999974 C19.9999997,15.5228472 15.5228472,19.9999997 9.99999969,19.9999997 C4.47715219,19.9999997 -3.12245277e-07,15.5228472 -3.12245277e-07,9.99999974 C-3.12245277e-07,4.47715225 4.47715219,-2.55455774e-07 9.99999969,-2.55455774e-07 Z M14.5202969,4.25291021 L4.08959961,14.4099242 C3.71772807,14.7817957 3.71772807,15.3847203 4.08959961,15.7565918 C4.46147114,16.1284633 5.06439567,16.1284633 5.43626719,15.7565918 L15.8669434,5.59959886 C16.238815,5.227739 16.2388247,4.62482424 15.8669644,4.25295076 C15.4950851,3.88105976 14.8921704,3.88105 14.5202969,4.25291021 Z M15.2389064,13.3333554 L11.428902,13.3333554 C10.9030029,13.3334307 10.4767388,13.7598168 10.4768149,14.2857158 C10.4768902,14.8115075 10.9031103,15.2377267 11.428902,15.2378029 L15.2389064,15.2378029 C15.7648055,15.2377276 16.1910697,14.8113415 16.1909935,14.2854424 C16.1909182,13.7596508 15.7646981,13.3334315 15.2389064,13.3333554 Z M6.19000911,3.11181614 C5.66411001,3.11181614 5.2377853,3.53814086 5.2377853,4.06403991 L5.23778535,5.23779125 L3.92817587,5.23779132 C3.40227686,5.23779128 2.97595215,5.66411604 2.97595215,6.19001509 C2.97595215,6.71591414 3.40227686,7.14223885 3.92817591,7.14223885 L5.23778545,7.14223878 L5.23778535,8.30204855 C5.23778543,8.82794775 5.66411006,9.25427246 6.19000911,9.25427246 C6.71590816,9.25427246 7.14223288,8.82794775 7.14223288,8.3020487 L7.14223298,7.14223892 L8.29484659,7.14223885 C8.8207456,7.14223887 9.24707031,6.71591414 9.24707031,6.19001509 C9.24707031,5.66411604 8.8207456,5.23779132 8.29484655,5.23779132 L7.14223293,5.23779139 L7.14223288,4.06404005 C7.14223288,3.53814112 6.71590816,3.11181614 6.19000911,3.11181614 Z" id="形状结合"></path>
                    </g>
                </g>
            </g>
        </g>
    </g>
</svg>