<svg t="1624526196424" class="icon" viewBox="0 0 1024 1024" version="1.1" xmlns="http://www.w3.org/2000/svg" p-id="4101" width="32" height="32"><path d="M102.4 480a32.256 32.256 0 0 1 5.0176 0.4096 30.6176 30.6176 0 0 1 12.1344 1.1776l75.3664 24.576a32 32 0 0 1-19.8656 60.8256l-38.2976-12.4928a377.6512 377.6512 0 0 0 362.8032 334.8992l12.4416 0.2048a377.7536 377.7536 0 0 0 354.816-248.064l4.4032-12.8512a32 32 0 0 1 62.1056 14.6944l-1.2288 5.12A441.7536 441.7536 0 0 1 70.656 525.2096L70.4 512c0-17.664 14.336-32 32-32z m462.4896-140.8512l5.9392 5.376 108.5952 108.6464c30.6176 30.5664 32.4096 79.0528 5.4272 111.7184l-5.376 5.9392-108.6464 108.5952a83.2 83.2 0 0 1-111.7184 5.4272l-5.9392-5.4272-108.5952-108.544a83.2 83.2 0 0 1-5.4272-111.7696l5.4272-5.9392L453.12 344.576a83.2 83.2 0 0 1 111.7696-5.4272z m-66.4576 50.688L389.7856 498.3808a19.2 19.2 0 0 0 0 27.136l108.6464 108.6464a19.2 19.2 0 0 0 27.136 0l108.6464-108.6464a19.2 19.2 0 0 0 0-27.136l-108.6464-108.6464a19.2 19.2 0 0 0-27.136 0zM512 70.3488a441.6 441.6 0 0 1 441.3952 428.3392l0.2048 13.2608a32 32 0 0 1-37.0688 31.5904 30.3104 30.3104 0 0 1-12.0832-1.1776l-75.3152-24.576a32 32 0 0 1 19.8144-60.8256l38.2976 12.4416a377.6512 377.6512 0 0 0-362.8032-334.848L512 134.4A377.7536 377.7536 0 0 0 157.184 382.464l-4.4032 12.8512a32 32 0 0 1-62.1056-14.6944l1.2288-5.12A441.7536 441.7536 0 0 1 512 70.4512z" p-id="4102"></path></svg>