<svg t="1624526152997" class="icon" viewBox="0 0 1024 1024" version="1.1" xmlns="http://www.w3.org/2000/svg" p-id="3969" width="32" height="32"><path d="M512 51.2a460.8 460.8 0 1 1 0 921.6 460.8 460.8 0 0 1 0-921.6z m0 69.12a391.68 391.68 0 1 0 0 783.36 391.68 391.68 0 0 0 0-783.36z m83.2 133.632a28.9792 28.9792 0 0 1 18.8928 36.352l-143.1552 452.608a28.928 28.928 0 0 1-27.648 20.2752l-4.352-0.3584-4.352-1.024a28.9792 28.9792 0 0 1-18.944-36.352l143.2064-452.6592a28.9792 28.9792 0 0 1 36.352-18.8928zM371.2 508.8256a77.824 77.824 0 0 1 52.5824 90.368l-1.8944 7.2192a77.4144 77.4144 0 0 1-31.6416 41.728l-6.656 3.8912a77.1072 77.1072 0 0 1-51.5072 7.168l-7.7824-2.048a77.4144 77.4144 0 0 1-41.6768-31.6416l-3.8912-6.656a77.4144 77.4144 0 0 1-5.12-59.2896c6.2464-19.8144 19.8144-35.9936 38.2464-45.568 18.432-9.6768 39.5264-11.4688 59.3408-5.1712z m-23.4496 54.272a19.8144 19.8144 0 0 0-18.944 13.9264 19.9168 19.9168 0 0 0 36.3008 15.6672l1.536-3.6352a19.8656 19.8656 0 0 0-9.216-23.3472l-3.6864-1.536a19.5584 19.5584 0 0 0-5.9904-1.024z m356.4032-200.3456a77.824 77.824 0 1 1-47.0016 148.3776 77.824 77.824 0 0 1 47.0016-148.3776z m-23.4496 54.3744a19.968 19.968 0 0 0-17.5104 10.3936l-1.4336 3.4304a19.8656 19.8656 0 0 0 36.2496 15.6672l1.536-3.6864a19.8656 19.8656 0 0 0-18.8416-25.8048z" p-id="3970"></path></svg>