<?xml version="1.0" encoding="UTF-8"?>
<svg width="24px" height="24px" viewBox="0 0 24 24" version="1.1" xmlns="http://www.w3.org/2000/svg" xmlns:xlink="http://www.w3.org/1999/xlink">
    <title>卡片-默认备份 3</title>
    <g id="页面-4" stroke="none" stroke-width="1" fill="none" fill-rule="evenodd">
        <g id="卡片-未申请" transform="translate(-110.000000, -160.000000)" fill="currentColor">
            <g id="左侧nav" transform="translate(0.000000, 61.000000)">
                <g id="编组-5" transform="translate(84.000000, 89.000000)">
                    <g id="订单列表备份" transform="translate(26.000000, 10.000000)">
                        <g id="信用卡" transform="translate(1.000000, 1.000000)">
                            <path d="M18.5385067,1.6892799 L19.2107305,4.13809227 L19.3067766,4.13810127 C20.5071741,4.13810127 21.4674934,5.0984206 21.4674934,6.29881807 L21.4674934,18.6869277 C21.4674934,19.8873252 20.5071741,20.8476445 19.3067766,20.8476445 L2.64524178,20.8476445 C1.44484431,20.8476445 0.484524983,19.8873252 0.484524983,18.6869277 L0.484524983,6.29881807 C0.484524983,5.23642953 1.23672317,4.36208921 2.24182954,4.17508712 L15.8976382,0.200786851 C17.0500204,-0.135323901 18.2504112,0.584915032 18.5385067,1.6892799 Z M20.026525,9.89964282 L1.92452498,9.89964282 L1.92500285,18.6869277 C1.92500285,19.0710559 2.2611136,19.4071667 2.64524178,19.4071667 L19.3067766,19.4071667 C19.6909048,19.4071667 20.0270155,19.0710559 20.0270155,18.6869277 L20.026525,9.89964282 Z M8.83929661,15.9980282 C9.22342479,15.9980282 9.55953554,16.334139 9.55953554,16.7182671 C9.55953554,17.1023953 9.22342479,17.4385061 8.83929661,17.4385061 L4.51786301,17.4385061 C4.13373483,17.4385061 3.79762408,17.1023953 3.79762408,16.7182671 C3.79762408,16.334139 4.13373483,15.9980282 4.51786301,15.9980282 L8.83929661,15.9980282 Z M19.3067766,5.57857914 L2.64524178,5.57857914 L2.62952498,5.57864282 L2.30912203,5.6746095 C2.08351988,5.79386638 1.92500285,6.0350192 1.92500285,6.29881807 L1.92452498,8.45864282 L20.026525,8.45864282 L20.0270155,6.29881807 C20.0270155,5.91468989 19.6909048,5.57857914 19.3067766,5.57857914 Z M16.2817573,1.54523211 L7.50652498,4.13764282 L17.712525,4.13764282 L17.1460441,2.07340808 C17.0500121,1.6892799 16.6658855,1.44920175 16.2817573,1.54523211 Z" id="形状结合"></path>
                        </g>
                    </g>
                </g>
            </g>
        </g>
    </g>
</svg>