<svg t="1624699596854" class="icon" viewBox="0 0 1024 1024" version="1.1" xmlns="http://www.w3.org/2000/svg" p-id="3896" width="32" height="32"><path d="M243.6608 365.568a33.4848 33.4848 0 1 1 0 67.072H135.5264v460.8h460.7488v-460.8H510.3616a33.4848 33.4848 0 1 1 0-67.072h107.3152c25.088 0 45.6704 20.5312 45.6704 45.7216v503.3984c0 25.1392-20.48 45.6704-45.6704 45.6704H114.2784a45.7216 45.7216 0 0 1-45.7216-45.6704V411.2896c0-25.1904 20.48-45.7216 45.7216-45.7216z m671.3856-297.3696c25.1392 0 45.6704 20.5312 45.6704 45.6704v503.4496c0 25.1392-20.4288 45.6704-45.6704 45.6704h-129.4336a33.4848 33.4848 0 1 1 0-67.072h108.1856V135.2704h-460.8v460.544h85.9648a33.4848 33.4848 0 1 1 0 67.072H411.648a45.7216 45.7216 0 0 1-45.7216-45.6704v-503.296c0-25.1904 20.48-45.7216 45.7216-45.7216z" p-id="3897"></path></svg>