<svg t="1624699532959" class="icon" viewBox="0 0 1024 1024" version="1.1" xmlns="http://www.w3.org/2000/svg" p-id="3761" width="32" height="32"><path d="M510.1056 424.2944a22.5792 22.5792 0 0 1-15.0016-3.7376L141.9264 281.6a36.096 36.096 0 0 1-22.528-33.792 38.0416 38.0416 0 0 1 22.528-33.8432L495.104 74.8544a32.1024 32.1024 0 0 1 26.2656 0l353.1776 139.0592a36.096 36.096 0 0 1 22.528 33.792 38.0416 38.0416 0 0 1-22.528 33.8432l-353.1776 139.008a13.824 13.824 0 0 1-11.264 3.7376zM258.4064 247.7056l251.6992 97.6896 251.7504-97.6896-251.7504-97.6384-251.6992 97.6384z" p-id="3762"></path><path d="M510.208 604.672L145.92 458.1376a38.0416 38.0416 0 1 1 26.2656-71.424l338.1248 135.3728 338.176-135.3728a38.0416 38.0416 0 1 1 26.2656 71.424L510.208 604.672z" p-id="3763"></path><path d="M510.1056 788.736l-368.1792-146.5344a38.0416 38.0416 0 1 1 26.2656-71.3728l338.176 135.3216 338.1248-135.3216a38.0416 38.0416 0 1 1 26.3168 71.3728l-360.704 146.5344z" p-id="3764"></path><path d="M510.208 969.1136L145.92 822.5792a38.0416 38.0416 0 0 1 26.2656-71.424l338.1248 135.3728 338.176-135.3728a38.0416 38.0416 0 0 1 26.2656 71.424l-364.4928 146.5344z" p-id="3765"></path></svg>