<?xml version="1.0" encoding="UTF-8"?>
<svg width="20px" height="20px" viewBox="0 0 20 20" version="1.1" xmlns="http://www.w3.org/2000/svg" xmlns:xlink="http://www.w3.org/1999/xlink">
    <title>转入</title>
    <g id="页面-4" stroke="none" stroke-width="1" fill="none" fill-rule="evenodd">
        <g id="首页-改8" transform="translate(-579.000000, -256.000000)" fill="#364A63" fill-rule="nonzero">
            <g id="编组-2" transform="translate(420.000000, 250.000000)">
                <g id="转入" transform="translate(144.000000, 0.000000)">
                    <g transform="translate(25.000000, 16.000000) scale(-1, -1) translate(-25.000000, -16.000000) translate(15.000000, 6.000000)">
                        <path d="M9.39216299,18.7990547 L9.37227371,18.798771 C9.2727182,18.7947955 9.17378262,18.7613716 9.08646356,18.6984489 L9.01472,18.6372898 L5.02451085,14.6470807 C4.83279699,14.4553668 4.81149545,14.1784368 4.96060623,13.9677682 L5.02451085,13.8921694 L5.40197912,13.5147264 C5.59369299,13.3230125 5.87062301,13.301711 6.08127379,13.4508218 L6.15686511,13.5147264 L8.85275228,16.2102789 L8.85295511,7.47551211 C8.85295511,7.1843353 9.02765437,6.98049789 9.29844743,6.94264217 L9.39216299,6.93627895 L9.93139616,6.93627895 C10.2009875,6.93627895 10.470604,7.15198232 10.470604,7.47551211 L10.470604,7.47551211 L10.4697523,16.1732789 L13.166694,13.5147264 C13.3584079,13.3230125 13.6353379,13.301711 13.8459887,13.4508218 L13.92158,13.5147264 L14.2990483,13.8921694 C14.4907621,14.0839057 14.5120636,14.3608382 14.3629529,14.5714893 L14.2990483,14.6470807 L10.3606237,18.5865996 C10.2571932,18.7203039 10.0942901,18.7990547 9.93139616,18.7990547 L9.99936298,18.7944617 C9.9893591,18.795817 9.97932993,18.7968719 9.96928666,18.7976265 L9.93139616,18.7990547 L9.39216299,18.7990547 L9.39216299,18.7990547 Z" id="形状结合备份" transform="translate(9.661780, 12.867667) scale(1, -1) translate(-9.661780, -12.867667) "></path>
                        <path d="M14.8921694,13.8578699 C16.0784621,12.4558991 16.7255217,10.5686336 16.4559051,8.57354165 C16.0784621,5.55392186 13.5980502,3.07353525 10.5245173,2.75000546 C6.42648169,2.31862398 3.02941892,5.44609545 3.02941892,9.43627932 C3.02941892,11.1078667 3.62256529,12.6715772 4.64706786,13.8578699 C4.80883275,14.073548 4.80883275,14.3970778 4.59315465,14.5588427 L4.21568638,14.9362857 C4.00000828,15.1519891 3.62256529,15.1519891 3.40686191,14.8823725 C2.00491635,13.2647236 1.25000508,11.16178 1.35785677,8.84315823 C1.73529976,4.90686229 5.40197912,1.29412141 9.39216299,1.07844331 C14.1911966,0.862739936 18.1814058,4.69118419 18.1814058,9.43627932 C18.1814058,11.5392229 17.4264945,13.4264885 16.1323753,14.9362857 C15.9166972,15.1519891 15.539229,15.2059023 15.3235509,14.9902242 L14.9461079,14.6127559 C14.784343,14.3431646 14.7304045,14.073548 14.8921694,13.8578699 L14.8921694,13.8578699 Z" id="形状"></path>
                    </g>
                </g>
            </g>
        </g>
    </g>
</svg>