<?xml version="1.0" standalone="no"?><!DOCTYPE svg PUBLIC "-//W3C//DTD SVG 1.1//EN" "http://www.w3.org/Graphics/SVG/1.1/DTD/svg11.dtd"><svg t="1624527414839" class="icon" viewBox="0 0 1024 1024" version="1.1" xmlns="http://www.w3.org/2000/svg" p-id="2395" width="32" height="32" xmlns:xlink="http://www.w3.org/1999/xlink"><defs><style type="text/css"></style></defs><path d="M512 759.466667c-230.4 0-411.733333-219.733333-420.266667-228.266667-8.533333-10.666667-8.533333-25.6 0-38.4 8.533333-8.533333 189.866667-228.266667 420.266667-228.266667 230.4 0 411.733333 219.733333 420.266667 228.266667 8.533333 10.666667 8.533333 25.6 0 38.4-6.4 8.533333-189.866667 228.266667-420.266667 228.266667zM155.733333 512c46.933333 51.2 192 187.733333 356.266667 187.733333 166.4 0 309.333333-136.533333 356.266667-187.733333-46.933333-51.2-192-187.733333-356.266667-187.733333-164.266667 0-309.333333 136.533333-356.266667 187.733333z" p-id="2396"></path><path d="M512 640c-70.4 0-128-57.6-128-128s57.6-128 128-128 128 57.6 128 128-55.466667 128-128 128z m0-198.4c-38.4 0-70.4 32-70.4 70.4 0 38.4 32 70.4 70.4 70.4s70.4-32 70.4-70.4c0-38.4-32-70.4-70.4-70.4z" p-id="2397"></path></svg>