<svg t="1624887350724" class="icon" viewBox="0 0 1024 1024" version="1.1" xmlns="http://www.w3.org/2000/svg" p-id="4147" width="32" height="32"><path d="M410.3168 902.2464a403.2 403.2 0 0 0 504.832-385.9456h-97.3824l-12.8 25.4976 28.8256 63.0272-48.0256 56.832v68.4544l-126.72 87.7568-53.6064-188.8768h-33.8432l-77.1584-61.952 33.4848-62.3104v-71.68l39.1168-38.2976 13.5168-69.888 69.9392-68.096 127.5904-47.7184A401.664 401.664 0 0 0 512 108.8c-99.8912 0-191.3344 36.352-261.7856 96.512l1.1776-0.3584 23.1936 70.9632 151.6544 66.1504-122.368 163.4816-34.5088 38.0416-75.1616 41.6256L109.056 496.7424a402.4832 402.4832 0 0 0 154.9312 333.2096v-34.304l22.528-73.1648-24.576-77.312 40.0384-87.04 111.2576 44.6464 118.5792 123.5968-80.4352 57.856-41.1136 118.016z m-54.5792-18.432l47.2576-135.68 41.3696-29.7472-64.0512-66.7648-48.8448-19.6608-7.8336 16.9984 23.296 73.2672-25.344 82.1248v63.1296c11.1104 5.9904 22.528 11.4176 34.1504 16.3328z m555.9808-425.1136a401.408 401.408 0 0 0-89.7536-204.544L681.984 306.432l-48.2816 47.104-13.5168 69.8368-34.6624 33.8944v61.952l-17.664 32.8704 24.0128 19.3024h57.088l43.52 153.2928 35.6864-24.7296v-59.392l38.0416-45.0048-25.1392-54.8864 41.1648-81.92h129.4848zM118.528 423.4752l86.528 89.9072 28.0576-15.5136 26.2144-28.9792 77.2096-103.1168-108.6464-47.36-22.3744-68.4032a401.92 401.92 0 0 0-86.9888 173.4656zM512 972.8a460.8 460.8 0 1 1 0-921.6 460.8 460.8 0 0 1 0 921.6z" p-id="4148"></path></svg>