<svg t="1623911139742" class="icon" viewBox="0 0 1024 1024" version="1.1" xmlns="http://www.w3.org/2000/svg" p-id="4467" width="32" height="32"><path d="M906.154667 695.04l0.256 10.496v143.189333c0 21.76-12.544 39.424-34.304 39.424-19.712 0-30.634667-14.549333-33.28-34.090666l-0.426667-5.333334v-143.189333c0-62.250667-59.050667-123.690667-121.130667-127.914667l-8.106666-0.298666h-113.706667l36.650667 126.208a39.424 39.424 0 0 1-4.224 32.682666l-3.370667 4.693334-90.026667 105.856a39.424 39.424 0 0 1-55.594666 4.565333l-4.266667-4.352-91.392-105.856a39.424 39.424 0 0 1-9.130667-31.445333l1.194667-5.546667 34.688-126.805333H288.512c-62.250667 0-128.725333 58.026667-132.949333 120.106666l-0.256 8.106667v143.189333c0 21.76-9.813333 39.424-31.573334 39.424-19.669333 0-29.354667-14.549333-32.042666-34.090666l-0.384-5.333334v-143.189333a197.205333 197.205333 0 0 1 186.709333-196.949333l10.496-0.256h420.693333a197.205333 197.205333 0 0 1 196.949334 186.666666zM471.04 587.093333l-32.853333 119.296 67.072 86.186667 67.072-86.186667-30.08-119.296h-71.210667zM506.837333 85.333333a174.805333 174.805333 0 0 1 0.682667 349.610667h-0.682667a174.805333 174.805333 0 0 1-8.704-349.397333L506.88 85.333333z m0 56.832a117.973333 117.973333 0 0 0-7.168 235.733334l7.168 0.256a117.973333 117.973333 0 0 0 7.168-235.776l-7.168-0.213334z" p-id="4468"></path></svg>