<svg t="1624246241626" class="icon" viewBox="0 0 1024 1024" version="1.1" xmlns="http://www.w3.org/2000/svg" p-id="4421" width="32" height="32"><path d="M509.326222 57.287111a452.039111 452.039111 0 0 0-452.039111 452.039111A452.039111 452.039111 0 0 0 509.326222 961.422222 452.039111 452.039111 0 0 0 961.422222 509.326222a452.039111 452.039111 0 0 0-452.096-452.039111z m0 826.595556a372.224 372.224 0 0 1-264.817778-109.624889 371.939556 371.939556 0 0 1-80.213333-119.068445 371.370667 371.370667 0 0 1-29.525333-145.863111A372.224 372.224 0 0 1 212.366222 281.031111l525.312 525.312a372.224 372.224 0 0 1-228.352 77.596445z m296.96-146.204445L280.974222 212.366222A372.224 372.224 0 0 1 509.326222 134.826667a372.224 372.224 0 0 1 264.817778 109.738666 372.224 372.224 0 0 1 109.624889 264.817778 372.224 372.224 0 0 1-77.482667 228.352z" p-id="4422"></path></svg>