<svg t="1624438463297" class="icon" viewBox="0 0 1024 1024" version="1.1" xmlns="http://www.w3.org/2000/svg" p-id="4025" width="32" height="32"><path d="M922.624 547.2256c19.456 0 35.2256 15.7184 35.2256 35.1744v222.9248H957.44A140.8 140.8 0 0 1 793.6 955.904v1.9968h-563.2v-1.7408a140.8 140.8 0 0 1-163.84-127.3344h-0.4096v-222.976a35.2256 35.2256 0 0 1 70.4 0v212.1216c0.3584 38.6048 31.744 69.6832 70.4 69.6832H230.4v-0.2048h563.2v0.2048h23.6544v-0.2048l3.9424-0.1024a70.4 70.4 0 0 0 66.2528-70.0928h0.2048v-11.9296h-0.2048v-222.9248c0-19.456 15.7696-35.1744 35.2256-35.1744zM221.696 385.1776l265.472 265.472a35.1744 35.1744 0 0 0 49.7664 0l265.472-265.472a35.2256 35.2256 0 1 0-49.7664-49.7664l-204.6976 204.6464V100.608a35.2256 35.2256 0 0 0-70.4 0v440.832L271.36 335.4624a35.2256 35.2256 0 0 0-49.7664 49.7664z" p-id="4026"></path></svg>