<?xml version="1.0" encoding="UTF-8"?>
<svg width="18px" height="18px" viewBox="0 0 18 18" version="1.1" xmlns="http://www.w3.org/2000/svg" xmlns:xlink="http://www.w3.org/1999/xlink">
    <title>download</title>
    <g id="页面-2" stroke="none" stroke-width="1" fill="none" fill-rule="evenodd">
        <g id="订单列表-5" transform="translate(-1122.000000, -353.000000)" fill="#FFFFFF" fill-rule="nonzero">
            <g id="编组-2" transform="translate(1006.000000, 346.000000)">
                <g id="转入备份-4" transform="translate(100.000000, 0.000000)">
                    <g id="download" transform="translate(16.000000, 7.000000)">
                        <path fill="currentColor" d="M17.0208483,9.6875136 L17.0208483,9.6875136 C17.4005442,9.6875136 17.7083491,9.99531845 17.7083491,10.3750144 L17.7083491,14.7291933 L17.6991824,14.7291933 L17.6991824,14.7291936 C17.8260218,16.2426729 16.7019282,17.5724176 15.188451,17.6992615 C14.9586667,17.7185189 14.7273721,17.7087989 14.5000135,17.6703304 L14.5000135,17.7088304 L3.50000068,17.7088304 L3.50000068,17.6749137 L3.50000074,17.6749136 C2.00245642,17.9280364 0.583257113,16.9192343 0.330149397,15.4216942 C0.317033708,15.3440982 0.307254976,15.2659749 0.300839949,15.1875401 L0.291673286,15.18754 L0.291673286,10.8333611 L0.291673286,10.8333612 C0.291673286,10.4536653 0.599478136,10.1458604 0.979174086,10.1458604 C1.35887004,10.1458604 1.66667489,10.4536653 1.66667489,10.8333612 C1.66667489,10.8333612 1.66667489,10.8333612 1.66667489,10.8333612 L1.66667489,14.9757899 L1.6666749,14.9757908 C1.67421596,15.7298073 2.28762347,16.3370789 3.0416765,16.3370424 L3.49955203,16.3370424 L3.50000941,16.3333758 L14.5000222,16.3333758 L14.4995639,16.3370425 L14.9624818,16.3370425 L14.9620235,16.3333758 L15.0390236,16.3310842 L15.0390235,16.3310842 C15.7644486,16.288455 16.3314606,15.6887157 16.3333577,14.9620402 L16.3374827,14.9620402 L16.3370243,14.7292073 L16.3333577,14.7292073 L16.3333577,10.3750284 L16.3333577,10.3750285 C16.3333576,9.99533257 16.6411625,9.6875136 17.0208585,9.6875136 L17.0208483,9.6875136 Z M3.32858237,6.52318375 L8.51371341,11.7083148 L8.51371342,11.7083148 C8.78211373,11.976887 9.2174156,11.9770266 9.48598564,11.7086263 C9.48608953,11.7085225 9.48619339,11.7084187 9.48629721,11.7083148 L14.6714282,6.52318374 L14.6714283,6.52318371 C14.9400005,6.25473828 14.9401036,5.81939989 14.6716574,5.5508277 C14.403212,5.28225551 13.9678736,5.28215239 13.6993014,5.55059857 L9.70079673,9.5481794 L9.70079673,0.965419411 L9.70079673,0.965419411 C9.70079673,0.585723461 9.39299188,0.277918611 9.01329593,0.277918611 C8.63359998,0.277918611 8.32579513,0.585723461 8.32579513,0.965419411 L8.32579513,9.57567943 L4.30071427,5.55059857 L4.30071429,5.55059859 C4.0321421,5.28215316 3.5968037,5.28225628 3.32835827,5.55082771 C3.05991284,5.8193999 3.06001597,6.2547383 3.3285874,6.52318373 C3.3285874,6.52318373 3.32858741,6.52318374 3.32858742,6.52318375 L3.32858237,6.52318375 Z" id="形状"></path>
                    </g>
                </g>
            </g>
        </g>
    </g>
</svg>