<svg t="1624604546672" class="icon" viewBox="0 0 1024 1024" version="1.1" xmlns="http://www.w3.org/2000/svg" p-id="3761" width="32" height="32"><path d="M952.32 917.617778a34.759111 34.759111 0 0 1-34.702222 34.702222H106.382222a34.759111 34.759111 0 0 1 0-69.461333h811.235556c19.171556 0 34.702222 15.530667 34.702222 34.702222zM924.899556 280.462222L445.44 759.466667a35.84 35.84 0 0 1-7.964444 5.973333 34.531556 34.531556 0 0 1-19.740445 6.144H268.970667a34.759111 34.759111 0 0 1-34.702223-34.702222l-0.398222-149.504c0-10.638222 4.778667-20.138667 12.288-26.510222a33.336889 33.336889 0 0 1 2.56-2.901334l475.306667-475.249778a34.816 34.816 0 0 1 14.506667-8.760888 34.759111 34.759111 0 0 1 37.205333 7.850666l147.512889 147.512889c1.137778 1.194667 2.275556 2.503111 3.299555 3.868445l-1.706666-1.820445c12.686222 12.686222 13.653333 32.881778 2.275555 46.648889l-2.275555 2.503111z m-73.557334-24.803555L750.364444 154.737778l-446.862222 446.862222 0.227556 100.465778h100.864l446.748444-446.350222z" p-id="3762"></path></svg>