<svg t="1623987589148" class="icon" viewBox="0 0 1024 1024" version="1.1" xmlns="http://www.w3.org/2000/svg" p-id="3893" width="32" height="32"><path d="M860.3136 673.024a1249.1776 1249.1776 0 0 0-12.6976-0.9728c-39.2704-2.9696-92.928-7.168-141.2096-17.408-68.9664-14.4896-84.3776-32.9728-87.4496-38.2464a181.8624 181.8624 0 0 1-24.6272-91.2896c0-44.4416 16.128-87.1424 45.6192-120.32l0.1024-0.1536 1.6896-1.8432 0.3072-0.4608a207.5136 207.5136 0 0 0 52.3776-137.8304c0-55.808-21.8112-108.1344-61.44-147.4048a206.3872 206.3872 0 0 0-146.3808-60.416h-1.4336A206.4896 206.4896 0 0 0 339.7632 117.76a206.08 206.08 0 0 0-60.8256 145.5104 206.6432 206.6432 0 0 0 53.6576 140.4928l0.8192 0.8704a181.3504 181.3504 0 0 1 20.8896 211.5584c-3.072 5.376-18.688 23.9616-88.32 38.6048-48.7424 10.24-104.8576 14.3872-141.9264 17.152-3.9424 0.3072-7.7824 0.512-11.4176 0.8704a49.664 49.664 0 0 0-45.6704 49.408v92.672c0 22.528 18.2784 40.7552 40.704 40.7552h50.4832v61.7984c0 27.2896 22.2208 49.5104 49.5104 49.5104h556.3904a49.5616 49.5616 0 0 0 49.4592-49.5104v-61.7984h51.712a40.7552 40.7552 0 0 0 40.704-40.704v-92.8256a49.664 49.664 0 0 0-45.6192-49.1008z m-123.904 217.1392H235.0592v-34.304h501.3504v34.304z m92.5184-111.3088H143.872v-31.0272c38.4-2.9696 90.3168-7.5776 137.8304-17.5616 73.0112-15.36 118.4768-39.936 139.008-75.1616a258.2528 258.2528 0 0 0-30.0032-301.568l-1.2288-1.3824a131.1232 131.1232 0 0 1-33.792-88.4224 131.328 131.328 0 0 1 129.8432-130.048 129.8432 129.8432 0 0 1 93.0304 37.9904 130.6624 130.6624 0 0 1 5.8368 179.3024l-1.8432 2.048-0.3584 0.512a258.2528 258.2528 0 0 0-30.0544 301.6192c11.9296 20.1728 32.256 37.2224 60.672 50.432 20.992 9.7792 46.2848 17.8176 77.4144 24.32 47.7184 10.1376 99.9936 14.7456 138.3936 17.8176v31.1296h0.3072z" p-id="3894"></path></svg>