<svg t="1625120299964" class="icon" viewBox="0 0 1024 1024" version="1.1" xmlns="http://www.w3.org/2000/svg" p-id="3751" width="32" height="32"><path d="M406.016 622.592V370.0736a31.5904 31.5904 0 0 0-63.232 0v252.5184a31.5904 31.5904 0 0 0 63.1808 0z m147.2512 0V454.1952a31.5904 31.5904 0 0 0-63.1296 0v168.448a31.5904 31.5904 0 0 0 63.1296 0z m147.456 0v-84.1216a31.5904 31.5904 0 0 0-63.1808 0v84.1216a31.5904 31.5904 0 0 0 63.1296 0z m230.656-443.904a94.6688 94.6688 0 0 0-71.2704-32.3584H306.3808l33.9456-33.9456a26.2656 26.2656 0 1 0-37.2224-37.2224L218.88 159.3856a26.2656 26.2656 0 0 0 0 37.2224L303.104 280.8832a26.2144 26.2144 0 0 0 37.2224 0 26.2656 26.2656 0 0 0 0-37.2224l-34.048-34.0992h553.8304a31.232 31.232 0 0 1 23.7568 10.8032c5.7344 6.5536 8.3968 14.848 7.68 23.4496l-89.088 354.304a31.5904 31.5904 0 0 0 61.2864 15.4624l89.6-356.3008a45.2096 45.2096 0 0 0 0.7168-3.584 94.8736 94.8736 0 0 0-22.6816-75.008z m-207.0016 522.9056a26.2656 26.2656 0 1 0-37.2224 37.2224l39.0656 39.1168H162.3552a31.232 31.232 0 0 1-23.808-10.752 31.3344 31.3344 0 0 1-7.68-23.5008L217.9584 404.48a31.488 31.488 0 0 0-22.7328-38.4 31.6416 31.6416 0 0 0-38.4 22.7328L69.0176 730.112a23.8592 23.8592 0 0 0-0.6656 3.6864 94.8736 94.8736 0 0 0 93.952 107.3152h553.8816l-29.0304 28.9792a26.2656 26.2656 0 1 0 37.2736 37.2224l84.224-84.224a26.2656 26.2656 0 0 0 0-37.2224l-84.3264-84.2752z" p-id="3752"></path></svg>