<?xml version="1.0" encoding="UTF-8"?>
<svg fill="currentColor" width="20px" height="20px" viewBox="0 0 20 20" version="1.1" xmlns="http://www.w3.org/2000/svg" xmlns:xlink="http://www.w3.org/1999/xlink">
    <title>链接</title>
    <g id="页面-2" stroke="none" stroke-width="1" fill="none" fill-rule="evenodd">
        <g id="首页-改5" transform="translate(-635.000000, -294.000000)" fill="#364A63" fill-rule="nonzero">
            <g id="编组-2" transform="translate(420.000000, 288.000000)">
                <g id="转出备份" transform="translate(200.000000, 0.000000)">
                    <g id="链接" transform="translate(15.000000, 6.000000)">
                        <path fill="currentColor" d="M8.55077963,6.52000803 C9.26154969,6.52000803 9.87078116,6.72308519 10.4800126,7.12923951 C11.0892441,7.43385525 11.596937,7.94154815 12.0030913,8.44924105 C12.2061685,8.75385679 12.2061685,9.26154969 11.8000142,9.46462685 C11.4953984,9.667704 10.9877055,9.667704 10.7846284,9.26154969 C10.4800126,8.85539537 10.1753969,8.55077963 9.76924258,8.34770247 C9.26154969,8.24616389 8.85539537,8.14462531 8.34770247,8.14462531 C7.84000957,8.14462531 7.43385525,8.14462531 6.92616235,8.34770247 C6.62154661,8.44924105 6.2153923,8.75385679 5.80923798,9.05847253 L3.37231206,11.4953984 C2.76308059,12.1046299 2.45846485,12.9169386 2.45846485,13.7292472 C2.45846485,14.5415558 2.76308059,15.3538645 3.37231206,15.9630959 C3.98154354,16.5723274 4.79385218,16.8769432 5.60616082,16.8769432 C6.52000803,16.8769432 7.23077809,16.5723274 7.94154815,15.9630959 L9.26154969,14.6430944 C9.56616543,14.3384787 10.0738583,14.3384787 10.3784741,14.6430944 C10.6830898,14.9477101 10.6830898,15.455403 10.3784741,15.7600188 L8.95693395,17.1815589 C8.24616389,17.9938675 7.02770093,18.5015604 5.80923798,18.5015604 C4.48923644,18.5015604 3.27077348,17.9938675 2.45846485,17.0800203 C1.54461763,16.1661731 1.03692473,15.0492487 1.03692473,13.7292472 C1.03692473,12.5107842 1.54461763,11.2923213 2.35692627,10.3784741 L4.79385218,7.94154815 C5.30154508,7.43385525 5.80923798,7.12923951 6.52000803,6.82462377 C7.12923951,6.62154661 7.84000957,6.52000803 8.55077963,6.52000803 Z M13.8307858,1.03692473 C15.0492487,1.03692473 16.2677117,1.54461763 17.1815589,2.45846485 C18.0954061,3.37231206 18.603099,4.48923644 18.603099,5.80923798 C18.603099,7.02770093 18.0954061,8.24616389 17.2830975,9.16001111 L14.8461716,11.596937 C14.3384787,12.1046299 13.8307858,12.4092457 13.1200157,12.7138614 C12.5107842,12.8154 12.0030913,12.9169386 11.3938599,12.9169386 L11.0892441,12.9169386 C10.3784741,12.9169386 9.76924258,12.7138614 9.16001111,12.3077071 C8.55077963,12.0030913 8.04308673,11.4953984 7.63693241,10.9877055 C7.43385525,10.6830898 7.43385525,10.1753969 7.84000957,9.87078116 C8.14462531,9.667704 8.65231821,9.667704 8.85539537,10.0738583 C9.16001111,10.4800126 9.46462685,10.7846284 9.87078116,10.9877055 C10.2769355,11.1907827 10.6830898,11.3938599 11.1907827,11.3938599 C11.6984756,11.3938599 12.1046299,11.3938599 12.6123228,11.1907827 C13.0184771,10.9877055 13.4246315,10.7846284 13.7292472,10.4800126 L16.1661731,8.04308673 C16.7754046,7.43385525 17.0800203,6.62154661 17.0800203,5.80923798 C17.0800203,4.99692934 16.7754046,4.1846207 16.1661731,3.57538922 C15.5569416,2.96615775 14.744633,2.66154201 13.9323244,2.66154201 C13.1200157,2.66154201 12.3077071,2.96615775 11.596937,3.57538922 L10.1753969,4.89539076 C9.87078116,5.2000065 9.36308827,5.2000065 9.05847253,4.89539076 C8.75385679,4.48923644 8.75385679,4.08308212 9.05847253,3.77846638 L10.4800126,2.35692627 C11.3938599,1.44307905 12.6123228,1.03692473 13.8307858,1.03692473 Z" id="形状结合"></path>
                    </g>
                </g>
            </g>
        </g>
    </g>
</svg>