<?xml version="1.0" encoding="UTF-8"?>
<svg width="18px" height="18px" viewBox="0 0 18 18" version="1.1" xmlns="http://www.w3.org/2000/svg" xmlns:xlink="http://www.w3.org/1999/xlink">
    <title>shaixuan</title>
    <g id="页面-2" stroke="none" stroke-width="1" fill="none" fill-rule="evenodd">
        <g id="订单列表-5" transform="translate(-1022.000000, -354.000000)" fill="#FFFFFF" fill-rule="nonzero">
            <g id="编组-2" transform="translate(1006.000000, 346.000000)">
                <g id="shaixuan" transform="translate(16.000000, 8.000000)">
                    <path fill="currentColor" d="M9.80040326,17.8753598 C9.49800326,17.8753598 9.19669891,17.7964728 8.92059457,17.6386989 L6.22748152,16.0993076 C5.75480299,15.8281835 5.46312398,15.3250581 5.4627163,14.7801424 L5.4627163,7.37462935 L0.756890217,3.54642065 C0.0940206522,3.00735978 -0.14921413,2.13850761 0.136751087,1.33429891 C0.422716304,0.528994565 1.16009022,0.00855978261 2.01360326,0.00855978261 L15.0222815,0.00855978261 C15.8768902,0.00855978261 16.6131685,0.528994565 16.8991337,1.33320326 C17.1850989,2.13741196 16.9418641,3.00626413 16.2789946,3.545325 L11.5720728,7.37462935 L11.5720728,16.0993076 C11.5720728,16.7380728 11.2422815,17.3110989 10.6889772,17.632125 C10.4197055,17.7908247 10.1129612,17.8747917 9.80040326,17.8753598 L9.80040326,17.8753598 Z M2.01360326,1.32334239 C1.56986413,1.32334239 1.41318587,1.66847283 1.3759337,1.77365543 C1.33868152,1.87883804 1.24226413,2.24588152 1.58629891,2.52636848 L6.44222935,6.47729022 C6.65487562,6.64926037 6.77815765,6.90831379 6.77749891,7.18179457 L6.77749891,14.7801424 C6.77749891,14.8535511 6.81694239,14.9214815 6.88049022,14.957638 L9.57360326,16.4970293 C9.77958587,16.6153598 9.96146413,16.5353772 10.0304902,16.4959337 C10.0995163,16.4564902 10.2583859,16.3381598 10.2583859,16.1004033 L10.2583859,7.18179457 C10.2583859,6.90678587 10.3800033,6.65040326 10.5936554,6.47729022 L15.4495859,2.52636848 C15.7936207,2.24697717 15.6982989,1.8799337 15.6599511,1.77365543 C15.6216033,1.66737717 15.4660207,1.32334239 15.0222815,1.32334239 L2.01360326,1.32334239 Z" id="形状"></path>
                    <path fill="currentColor" d="M16.8574989,9.11123804 L13.096125,9.11123804 C12.7334641,9.11123804 12.4387337,8.81650761 12.4387337,8.45384674 C12.4387337,8.09118587 12.7334641,7.79645543 13.096125,7.79645543 L16.8574989,7.79645543 C17.2201598,7.79645543 17.5148902,8.09118587 17.5148902,8.45384674 C17.5148902,8.81650761 17.2201598,9.11123804 16.8574989,9.11123804 Z M16.8574989,11.7747685 L13.096125,11.7747685 C12.7334641,11.7747685 12.4387337,11.480038 12.4387337,11.1173772 C12.4387337,10.7547163 12.7334641,10.4599859 13.096125,10.4599859 L16.8574989,10.4599859 C17.2201598,10.4599859 17.5148902,10.7547163 17.5148902,11.1173772 C17.5148902,11.480038 17.2201598,11.7747685 16.8574989,11.7747685 Z M16.8574989,14.3736554 L13.096125,14.3736554 C12.7334641,14.3736554 12.4387337,14.078925 12.4387337,13.7162641 C12.4387337,13.3536033 12.7334641,13.0588728 13.096125,13.0588728 L16.8574989,13.0588728 C17.2201598,13.0588728 17.5148902,13.3536033 17.5148902,13.7162641 C17.5148902,14.078925 17.2201598,14.3736554 16.8574989,14.3736554 Z" id="形状"></path>
                </g>
            </g>
        </g>
    </g>
</svg>