<svg fill="currentColor" width="18px" height="18px" viewBox="0 0 18 18" version="1.1" xmlns="http://www.w3.org/2000/svg" xmlns:xlink="http://www.w3.org/1999/xlink">
    <title>个人</title>
    <g id="页面-2" stroke="none" stroke-width="1" fill-rule="evenodd">
        <g id="首页-改4" transform="translate(-1136.000000, -131.000000)">
            <g id="操作" transform="translate(1116.000000, 58.000000)">
                <g id="编组-3" transform="translate(0.000000, 62.000000)">
                    <g id="个人" transform="translate(20.000000, 11.000000)">
                        <rect id="矩形" fill-opacity="0.01" x="0" y="0" width="18" height="18"></rect>
                        <path d="M9.1000324,-1.77635684e-15 C12.1593802,-1.77635684e-15 14.4997363,2.34033859 14.4997363,5.40066288 C14.4997363,7.19960419 13.6002642,8.6395291 12.3398489,9.72043179 L12.34,9.719 L12.5916576,9.83485555 C15.2514188,11.1097506 17.0862597,13.7863641 17.1950198,16.8146645 L17.2001316,17.099566 C17.2001316,17.6400188 16.8401504,18 16.2996976,18 C15.7602067,18 15.4002255,17.6400188 15.4002255,17.099566 C15.4002255,13.6792576 12.5203699,10.7994077 9.10006728,10.7994077 C5.68071786,10.7994077 2.80086805,13.6792634 2.80086805,17.099566 C2.80086805,17.6400188 2.44088682,18 1.90043403,18 C1.35998123,18 1,17.6400188 1,17.099566 C1,13.859732 2.98036608,10.979888 5.86021589,9.71947278 C4.60076256,8.64049683 3.70032853,7.20056901 3.70032853,5.39970387 C3.70032853,2.34035603 6.03970811,-1.77635684e-15 9.1000324,-1.77635684e-15 Z M9.09998547,1.80085627 L8.90903806,1.80638023 C7.01216812,1.91082349 5.50579314,3.47903956 5.50020238,5.40069759 L5.50572626,5.59160356 C5.61016787,7.4884641 7.17835673,8.994857 9.10001476,9.00046934 L9.29096217,8.99494538 C11.1878321,8.89050212 12.6942072,7.32228605 12.6997979,5.40062802 L12.694274,5.20972178 C12.5898324,3.31285877 11.0216435,1.80646843 9.09998547,1.80085627 L9.09998547,1.80085627 Z" id="形状结合" fill="currentColor" fill-rule="nonzero"></path>
                    </g>
                </g>
            </g>
        </g>
    </g>
</svg>