<svg t="1624844484947" class="icon" viewBox="0 0 1024 1024" version="1.1" xmlns="http://www.w3.org/2000/svg" p-id="3751" width="32" height="32"><path d="M652.3392 303.872V228.7616c0-41.472-33.6384-75.1616-75.1616-75.1616H126.3616C84.8896 153.6 51.2 187.2384 51.2 228.7616v450.816c0 41.472 33.6384 75.1616 75.1616 75.1616a150.272 150.272 0 1 0 300.544 0h150.272a150.272 150.272 0 1 0 300.544 0c41.5232 0 75.1616-33.6384 75.1616-75.1616v-75.1104a300.544 300.544 0 0 0-300.544-300.544zM133.5808 717.1584l0 0z m143.0528 112.7424A75.1616 75.1616 0 1 1 351.744 754.688c0 41.472-33.6384 75.1616-75.1104 75.1616z m145.92-118.016l0 0z m-16.6912-32.256a150.272 150.272 0 0 0-258.4576 0h-21.0432V228.7104h450.816v450.816H405.8624z m321.6384 150.272a75.1616 75.1616 0 1 1 75.1104-75.1616c0 41.472-33.6384 75.1616-75.1104 75.1616z m145.92-118.016l0 0z m4.352-32.256h-21.0432a150.272 150.272 0 0 0-129.2288-75.1616 150.272 150.272 0 0 0-75.1616 20.992V379.0848a225.4336 225.4336 0 0 1 225.4336 225.4336v75.1104z" p-id="3752"></path></svg>