<svg t="1624420226657" class="icon" viewBox="0 0 1024 1024" version="1.1" xmlns="http://www.w3.org/2000/svg" p-id="3761" width="32" height="32"><path d="M511.488 52.0192c18.432 0 32.6144 14.7456 32.6144 32.6656v33.8432a394.9568 394.9568 0 0 1 361.3184 360.8576h33.9456c18.432 0 32.6656 14.7456 32.6656 32.6656a31.8464 31.8464 0 0 1-32.6656 32.6144h-33.9456a394.9568 394.9568 0 0 1-361.3184 360.8064v34.4576a31.744 31.744 0 0 1-30.72 32.6656H512a32.9216 32.9216 0 0 1-33.1776-32.6656v-34.56a394.9568 394.9568 0 0 1-360.2432-360.704h-33.9456a32.4608 32.4608 0 0 1-32.6656-32.256V512c0-18.432 14.7456-32.6144 32.6656-32.6144h33.9456a394.9568 394.9568 0 0 1 360.2432-360.7552v-33.9456c0-18.432 14.7456-32.6656 32.6656-32.6656z m32.6144 132.608v31.5904a31.744 31.744 0 0 1-30.72 32.6656H512a32.9216 32.9216 0 0 1-32.768-27.8528l-0.4096-4.864v-31.488a329.216 329.216 0 0 0-294.1952 294.7072h31.5392c18.432 0 32.6656 14.7456 32.6656 32.6144 0 18.432-14.7456 32.6144-32.6656 32.6144v0.0512h-31.5392a329.216 329.216 0 0 0 294.1952 294.656v-30.976c0-18.432 14.7456-32.6656 32.6656-32.6656 18.432 0 32.6144 14.7456 32.6144 32.6656v31.0784a329.216 329.216 0 0 0 295.2704-294.7584h-31.5392a32.4608 32.4608 0 0 1-32.6656-32.256v-0.3584c0-18.432 14.7456-32.6656 32.6656-32.6656h31.5392a329.216 329.216 0 0 0-295.2704-294.8096zM512 380.416l8.704 0.512a131.584 131.584 0 0 1-8.704 262.656l-8.704-0.512A131.584 131.584 0 0 1 512 380.416z m0 65.7408l-6.656 0.3072a65.8432 65.8432 0 0 0 6.656 131.328l6.7072-0.3072a65.8432 65.8432 0 0 0-6.656-131.328z" p-id="3762"></path></svg>