<svg t="1625051854454" class="icon" viewBox="0 0 1024 1024" version="1.1" xmlns="http://www.w3.org/2000/svg" p-id="3751" width="32" height="32"><path d="M590.4896 61.7984a99.328 99.328 0 0 1 93.3888 66.7136h23.3472a167.2192 167.2192 0 0 1 166.7072 166.7072v500.224a167.2192 167.2192 0 0 1-166.7072 166.7584H273.664a167.2192 167.2192 0 0 1-166.7072-166.7584v-500.224A167.2192 167.2192 0 0 1 273.664 128.512h23.3472a99.328 99.328 0 0 1 93.3888-66.7136zM296.96 195.2256h-23.3472a100.352 100.352 0 0 0-100.0448 99.9936v500.224a100.352 100.352 0 0 0 100.0448 100.0448h433.5616a100.352 100.352 0 0 0 99.9936-100.0448v-500.224a100.352 100.352 0 0 0-99.9936-99.9936h-23.3472a99.328 99.328 0 0 1-93.3888 66.6624H390.4a99.328 99.328 0 0 1-93.3888-66.6624z m176.7424 516.864c18.3808 0 33.3824 15.0016 33.3824 33.3312a33.4336 33.4336 0 0 1-33.3824 33.3824H340.3776a33.4336 33.4336 0 0 1-33.3312-33.3824c0-18.3296 15.0016-33.3312 33.3312-33.3312z m166.7584-166.7584c18.3296 0 33.3312 15.0016 33.3312 33.3824a33.4336 33.4336 0 0 1-33.3312 33.3312H340.3776a33.4336 33.4336 0 0 1-33.3312-33.3312c0-18.3808 15.0016-33.3824 33.3312-33.3824z m0-166.7072c18.3296 0 33.3312 15.0016 33.3312 33.3312a33.4336 33.4336 0 0 1-33.3312 33.3312H340.3776a33.4336 33.4336 0 0 1-33.3312-33.28c0-18.432 15.0016-33.3824 33.3312-33.3824z m-50.0224-250.112H390.4a33.4336 33.4336 0 0 0-33.3312 33.3312c0 18.3296 15.0016 33.3824 33.3312 33.3824h200.0896a33.4336 33.4336 0 0 0 33.3312-33.3824 33.4336 33.4336 0 0 0-33.3312-33.3312z" p-id="3752"></path></svg>