<svg t="1623910854677" class="icon" viewBox="0 0 1024 1024" version="1.1" xmlns="http://www.w3.org/2000/svg" p-id="3823" width="32" height="32"><path d="M869.034667 92.032H105.941333c-30.037333 0-54.442667 26.112-54.442666 58.453333v525.482667c0 32.298667 24.405333 58.410667 54.442666 58.410667h350.890667v109.482666H269.44c-16.853333 0-30.592 14.762667-30.592 32.853334 0 18.133333 13.738667 32.853333 30.592 32.853333h436.053333c16.896 0 30.634667-14.72 30.634667-32.853333 0-18.090667-13.738667-32.853333-30.592-32.853334h-187.392v-109.482666h350.890667c30.037333 0 54.442667-26.112 54.442666-58.410667V150.442667c0-32.298667-24.405333-58.410667-54.442666-58.410667z m-1.792 580.096h-759.466667V154.282667h759.466667v517.845333z" p-id="3824"></path><path d="M422.826667 596.181333c15.786667 0 28.586667-13.738667 28.586666-30.592V269.610667c0-16.853333-12.8-30.592-28.586666-30.592-15.744 0-28.586667 13.738667-28.586667 30.592v295.978666c0 16.853333 12.842667 30.592 28.586667 30.592z m268.074666 0c15.744 0 28.586667-13.738667 28.586667-30.592v-212.906666c0-16.896-12.842667-30.634667-28.586667-30.634667-15.786667 0-28.586667 13.738667-28.586666 30.634667v212.906666c0 16.853333 12.714667 30.592 28.586666 30.592z m-401.962666 0c15.744 0 28.586667-13.738667 28.586666-30.592v-212.906666c0-16.896-12.842667-30.634667-28.586666-30.634667-15.786667 0-28.586667 13.738667-28.586667 30.634667v212.906666c0 16.853333 12.714667 30.592 28.586667 30.592z m267.946666 0c15.744 0 28.586667-13.738667 28.586667-30.592V405.76c0-16.896-12.842667-30.634667-28.586667-30.634667-15.786667 0-28.586667 13.738667-28.586666 30.634667v159.786667c0 16.853333 12.8 30.592 28.586666 30.592z" p-id="3825"></path></svg>