<svg t="1624246218021" class="icon" viewBox="0 0 1024 1024" version="1.1" xmlns="http://www.w3.org/2000/svg" p-id="4289" width="32" height="32"><path d="M512 51.2a460.8 460.8 0 1 1 0 921.6 460.8 460.8 0 0 1 0-921.6z m0 69.12a391.68 391.68 0 1 0 0 783.36 391.68 391.68 0 0 0 0-783.36z m130.4064 212.4288a34.816 34.816 0 0 1 48.8448 0 34.816 34.816 0 0 1 0 48.8448L560.8448 512l130.4064 130.4064a34.56 34.56 0 0 1-48.8448 48.8448L512 560.8448l-130.4064 130.4064a34.56 34.56 0 0 1-48.8448-48.8448L463.1552 512 332.7488 381.5936a34.56 34.56 0 0 1 48.8448-48.8448L512 463.1552z" p-id="4290"></path></svg>