<svg t="1625744124401" class="icon" viewBox="0 0 1024 1024" version="1.1" xmlns="http://www.w3.org/2000/svg" p-id="3889" width="32" height="32"><path d="M539.874394 3.683402l375.50791 113.773037c33.676819 10.467119 56.20388 39.479244 55.862561 71.90456v467.152091c0 163.434968-315.492632 312.534533-424.03211 358.953932l-7.053928 3.014986a65.419496 65.419496 0 0 1-16.781523 4.550921l-8.760524 0.568865c-7.964113 0-15.928225-1.535936-23.323473-4.437148-101.428663-38.910379-431.142925-180.216491-430.23274-362.822216v-467.038318c-0.284433-32.425316 22.185742-61.43744 55.862561-71.904559L490.383123 3.683402c16.098885-4.892241 33.449273-4.892241 49.491271 0z m-27.362415 63.826674l-373.744428 113.716151a8.81741 8.81741 0 0 0-6.37129 8.134772v467.152091c-0.568865 118.779051 238.013194 243.132981 382.277405 299.223088 192.16266-81.745927 385.235504-205.360332 385.235504-299.223088V189.474772a8.760524 8.760524 0 0 0-6.37129-8.134772l-375.564796-113.773038a9.215616 9.215616 0 0 0-5.461105 0z m52.44937 145.686374a160.419983 160.419983 0 0 1 0.398205 314.241129v67.126092h61.437441a33.563046 33.563046 0 0 1 0 67.126092h-61.437441v128.677305a32.652862 32.652862 0 1 1-65.305723 0v-262.815716a160.419983 160.419983 0 1 1 64.850631-314.354902z m-32.254656 53.643987a98.470564 98.470564 0 1 0 95.398691 101.485549V365.254114a97.162174 97.162174 0 0 0-95.398691-98.413677z" p-id="3890"></path></svg>