<svg t="1625743892799" class="icon" viewBox="0 0 1024 1024" version="1.1" xmlns="http://www.w3.org/2000/svg" p-id="3757" width="32" height="32"><path d="M977.692444 519.338667c0-4.892444 0-9.784889-2.446222-12.231111-2.446222-4.835556-4.892444-9.728-7.338666-12.174223l-190.179556-190.179555a35.328 35.328 0 0 0-51.2 0 35.328 35.328 0 0 0 0 51.2L853.333333 482.759111H331.605333a37.546667 37.546667 0 0 0-36.579555 36.579556c0 19.456 17.066667 36.522667 36.579555 36.522666h526.620445l-131.697778 131.697778a35.328 35.328 0 0 0 0 51.2 35.328 35.328 0 0 0 51.2 0l190.179556-190.179555a36.693333 36.693333 0 0 0 9.784888-26.851556V519.395556z m-365.738666 431.502222H148.707556A71.850667 71.850667 0 0 1 75.662222 877.795556V146.204444c0-41.415111 31.687111-73.102222 73.102222-73.102222H648.533333a37.546667 37.546667 0 0 0 36.579556-36.579555A37.546667 37.546667 0 0 0 648.533333 0H148.707556A146.716444 146.716444 0 0 0 2.446222 146.261333V877.795556A146.716444 146.716444 0 0 0 148.707556 1024H648.533333a37.546667 37.546667 0 0 0 36.579556-36.579556 37.546667 37.546667 0 0 0-36.579556-36.579555h-36.579555z" p-id="3758"></path></svg>