<svg t="1625052105496" class="icon" viewBox="0 0 1024 1024" version="1.1" xmlns="http://www.w3.org/2000/svg" p-id="3883" width="32" height="32"><path d="M501.274947 804.486737c-300.570947 0-390.629053-264.784842-396.557473-280.252632-4.311579-8.892632-3.934316-29.642105 1.832421-41.660631C107.789474 479.663158 212.722526 211.590737 501.221053 211.590737c287.097263 0 387.449263 259.287579 393.970526 274.539789 4.311579 8.623158 4.688842 29.749895-0.700632 41.984-0.970105 2.856421-90.974316 276.372211-393.216 276.372211z m473.19579-350.962526C969.027368 440.158316 834.290526 126.652632 501.436632 126.652632 168.474947 126.652632 33.414737 440.858947 28.995368 451.637895 12.611368 484.513684 12.126316 532.210526 26.408421 561.044211c1.239579 3.341474 126.490947 327.787789 474.974316 327.787789 348.429474 0 474.058105-325.146947 474.058105-325.524211 15.090526-32.875789 14.012632-81.542737-0.91621-109.837473M501.221053 299.924211a161.684211 161.684211 0 0 1 161.68421 161.68421v92.375579a161.684211 161.684211 0 1 1-323.368421 0V461.554526a161.684211 161.684211 0 0 1 161.684211-161.68421z m0 69.254736c-51.038316 0-92.375579 41.337263-92.375579 92.375579v92.429474a92.375579 92.375579 0 1 0 184.751158 0V461.554526c0-51.038316-41.337263-92.375579-92.375579-92.375579z" p-id="3884"></path></svg>