<?xml version="1.0" encoding="UTF-8"?>
<svg fill="currentColor" width="24px" height="24px" viewBox="0 0 24 24" version="1.1" xmlns="http://www.w3.org/2000/svg" xmlns:xlink="http://www.w3.org/1999/xlink">
    <title>转入-默认</title>
    <g id="页面-2" stroke="none" stroke-width="1"  fill-rule="evenodd">
        <g id="首页-改4" transform="translate(-110.000000, -160.000000)">
            <g id="左侧nav" transform="translate(0.000000, 61.000000)">
                <g id="编组-5" transform="translate(84.000000, 89.000000)">
                    <g id="转入-默认" transform="translate(26.000000, 10.000000)">
                        <rect id="矩形" fill-opacity="0.01"  x="0" y="0" width="24" height="24"></rect>
                        <g id="转入" transform="translate(1.000000, 1.000000)"  fill-rule="nonzero">
                            <path d="M16.6941408,21.5910877 L3.54071377,21.5910877 C1.66165276,21.5910877 0.181180446,20.1106154 0.181180446,18.2315544 L0.181180446,3.88236122 C0.181180446,2.06024146 1.66165276,0.522827902 3.54071377,0.522827902 L16.6941408,0.522827902 C18.5162606,0.522827902 20.0536742,2.00330021 20.0536742,3.88236122 L20.0536742,6.27389342 C20.0536742,6.7863646 19.5981442,7.24189454 19.085673,7.24189454 C18.5732018,7.24189454 18.1176719,6.7863646 18.1176719,6.27389342 L18.1176719,3.88236122 C18.1176719,3.08518383 17.4913182,2.45883016 16.6941408,2.45883016 L3.54071377,2.45883016 C2.74353637,2.45883016 2.1171827,3.08518383 2.1171827,3.88236122 L2.1171827,18.2884956 C2.1171827,19.085673 2.74353637,19.7120267 3.54071377,19.7120267 L16.6941408,19.7120267 C17.4913182,19.7120267 18.1176719,19.085673 18.1176719,18.2884956 L18.1176719,15.8969634 C18.1176719,15.3844923 18.5732018,14.9289623 19.085673,14.9289623 C19.5981442,14.9289623 20.0536742,15.3844923 20.0536742,15.8969634 L20.0536742,18.2884956 C20.0536742,20.1106154 18.5732018,21.5910877 16.6941408,21.5910877 Z" id="路径"></path>
                            <path d="M20.2814391,13.220725 L7.12801206,13.220725 C6.72942336,13.220725 6.3877759,12.9929601 6.21695218,12.6513126 C6.10306969,12.3096651 6.16001093,11.8541352 6.44471715,11.569429 L10.0320154,7.9821307 C10.4306041,7.64048324 11.0000166,7.69742449 11.341664,8.03907194 C11.6833115,8.3807194 11.7402527,8.95013183 11.3986053,9.34872053 L9.40566177,11.2847228 L20.2814391,11.2847228 C20.7939103,11.2847228 21.2494403,11.7402527 21.2494403,12.2527239 C21.2494403,12.8221363 20.7939103,13.220725 20.2814391,13.220725 L20.2814391,13.220725 Z" id="路径"></path>
                        </g>
                    </g>
                </g>
            </g>
        </g>
    </g>
</svg>