<svg t="1623987266329" class="icon" viewBox="0 0 1024 1024" version="1.1" xmlns="http://www.w3.org/2000/svg" p-id="3761" width="32" height="32"><path d="M375.808 55.296c19.8656 0 36.864 15.5648 36.864 33.9968v32.6656h200.0384v-32.6656c0-18.432 17.0496-34.048 36.864-34.048h1.4336c19.8656 0 36.864 15.616 36.864 34.048v32.6656h143.36c42.496 0 77.9776 31.232 77.9776 70.912v700.8256c0 39.68-35.4816 70.912-78.0288 70.912H192.8192c-42.5984 0-78.0288-32.6144-78.0288-70.912V192.8704c0-39.7312 35.4304-70.912 78.0288-70.912h144.6912v-32.6656c0-18.432 16.9984-34.048 36.864-34.048z m456.8064 326.2464H192.8192l-1.4336 512.1536 639.7952 1.3824 1.4336-513.536z m-165.9904 265.3184c21.2992 0 38.2976 15.5648 38.2976 34.048 0 18.432-16.9984 33.9968-38.2976 33.9968H357.376c-21.2992 0-38.2976-15.5648-38.2976-33.9968 0-18.432 16.9984-34.048 38.2976-34.048z m0-130.56c21.2992 0 38.2976 17.0496 38.2976 34.048 0 18.432-16.9984 34.048-38.2976 34.048H357.376c-21.2992 0-38.2976-15.5648-38.2976-34.048 0-18.432 16.9984-34.048 38.2976-34.048zM192.8192 190.0544v120.576h635.5456V191.4368h-144.6912v18.432c0 18.432-17.0496 34.048-36.864 34.048h-1.4336c-19.8656 0-36.864-15.5648-36.864-33.9968v-18.432H411.2384v19.8144c0 18.432-17.0496 34.048-36.864 34.048h-1.4336c-19.8656 0-36.864-15.616-36.864-34.048V191.488l-143.36-1.3824z" p-id="3762"></path></svg>