<svg t="1623911220465" class="icon" viewBox="0 0 1024 1024" version="1.1" xmlns="http://www.w3.org/2000/svg" p-id="4848" width="32" height="32"><path d="M132.224 542.976h366.165333c17.962667 0 29.994667-12.032 29.994667-29.994667s-17.92-29.866667-29.994667-29.866666h-366.08c-18.048 0-29.994667 11.904-29.994666 29.866666-0.085333 18.048 11.946667 29.994667 29.866666 29.994667z m384.128-293.248h396.202667c18.048 0 29.994667-11.946667 29.994666-29.994667 0-17.92-11.946667-29.866667-29.994666-29.866666h-396.202667c-17.92 0-29.994667 11.946667-29.994667 29.866666 0 17.92 12.032 29.994667 29.994667 29.994667z m396.288 233.429333h-126.08c-5.973333-65.877333-66.005333-107.733333-132.010667-101.717333-54.144 5.930667-102.101333 41.813333-108.117333 119.68 0 83.797333 48.042667 125.610667 114.048 131.626667h6.016c59.989333 0 96.085333-35.925333 114.048-89.770667h126.08c17.92 0 29.994667-11.946667 29.994667-29.866667 0-18.005333-5.930667-29.952-23.978667-29.952z m-198.101333 65.834667a64.512 64.512 0 0 1-84.053334 5.973333c-17.92-11.904-23.978667-29.866667-23.978666-47.786666 0-35.968 23.978667-59.904 59.989333-59.904 36.010667 0 59.989333 23.936 59.989333 59.861333 0 11.861333-5.930667 29.824-11.946666 41.813333z m-354.261334 149.589333c-59.989333-11.946667-126.08 29.994667-138.112 89.770667H132.309333c-18.048 0-29.994667 11.946667-29.994666 29.994667 0 17.92 12.032 29.866667 29.994666 29.866666H222.293333c12.032 47.872 48.042667 83.797333 96.085334 89.813334h23.936c66.005333 6.016 126.08-41.941333 132.010666-107.733334 6.101333-65.92-41.941333-125.696-114.048-131.712z m42.026667 119.765334c0 35.925333-23.978667 59.904-59.989333 59.904-36.010667 0-60.074667-23.978667-60.074667-59.904 0-35.925333 23.978667-59.904 60.074667-59.904 36.010667 0 59.989333 23.893333 59.989333 59.904zM132.266667 249.728h89.941333C234.24 297.6 270.208 333.482667 318.293333 339.498667l17.962667 6.016c66.005333 0 132.096-47.914667 138.026667-113.749334 6.016-65.792-47.957333-125.696-114.048-131.712-59.904-11.946667-125.866667 29.994667-137.898667 89.770667H132.266667c-18.005333 0-29.952 11.946667-29.952 29.909333-0.085333 17.92 11.946667 29.994667 29.866666 29.994667z m150.016-29.994667c0-35.925333 23.978667-59.904 60.074666-59.904 36.010667 0 59.989333 23.978667 59.989334 59.904 0 35.925333-23.978667 59.904-59.989334 59.904-36.010667 0-60.074667-23.893333-60.074666-59.904zM912.64 788.352h-396.288c-17.92 0-29.994667 11.946667-29.994667 29.994667 0 17.92 11.946667 29.866667 29.994667 29.866666h396.202667c18.048 0 29.994667-11.946667 29.994666-29.866666 0.085333-17.962667-11.861333-29.994667-29.909333-29.994667z" p-id="4849"></path></svg>