<svg t="1623911173098" class="icon" viewBox="0 0 1024 1024" version="1.1" xmlns="http://www.w3.org/2000/svg" p-id="4594" width="32" height="32"><path d="M652.970667 265.898667a324.608 324.608 0 0 1 162.816 223.530666 29.226667 29.226667 0 0 0 28.714666 23.637334h5.546667a29.696 29.696 0 0 0 23.210667-34.773334 380.288 380.288 0 0 0-192.426667-263.893333 28.757333 28.757333 0 0 0-22.272 0 29.226667 29.226667 0 0 0-5.546667 51.498667z m-146.048 34.773333a109.44 109.44 0 0 0 108.032-110.378667 107.093333 107.093333 0 0 0-33.834667-75.093333 103.424 103.424 0 0 0-78.378667-29.696 107.605333 107.605333 0 1 0 2.773334 215.168h1.408z m-50.56-109.909333c1.706667-26.666667 24.32-47.189333 51.029333-46.378667a49.152 49.152 0 0 1 0 97.834667 50.090667 50.090667 0 0 1-51.029333-51.456z m370.986666 338.986666a108.501333 108.501333 0 0 0-76.970666 33.877334 111.786667 111.786667 0 0 0-30.165334 78.848 108.970667 108.970667 0 0 0 107.136 106.666666A110.848 110.848 0 0 0 938.666667 638.72v-1.877333a109.909333 109.909333 0 0 0-111.317334-107.093334z m51.029334 111.786667a51.029333 51.029333 0 0 1-51.029334 48.682667 51.925333 51.925333 0 0 1-49.621333-53.333334 51.072 51.072 0 1 1 102.016 4.181334l-1.365333 0.426666z m-683.093334-111.786667H192.426667a108.501333 108.501333 0 0 0-76.970667 33.877334 111.786667 111.786667 0 0 0-30.122667 78.848 108.970667 108.970667 0 0 0 109.909334 106.666666 111.317333 111.317333 0 0 0 109.909333-112.213333 109.909333 109.909333 0 0 0-109.909333-107.178667z m50.986667 111.786667a51.029333 51.029333 0 0 1-50.986667 48.682667 51.925333 51.925333 0 0 1-51.029333-53.333334 51.072 51.072 0 1 1 102.016 4.181334v0.426666z m-79.274667-134.485333h6.485334a29.696 29.696 0 0 0 28.757333-24.106667 324.608 324.608 0 0 1 161.365333-217.045333 28.757333 28.757333 0 0 0 12.074667-39.424 29.696 29.696 0 0 0-39.893333-12.544 381.184 381.184 0 0 0-191.061334 257.877333 28.757333 28.757333 0 0 0 3.712 22.229333c4.266667 6.570667 10.922667 11.264 18.56 13.013334z m567.594667 266.197333a306.517333 306.517333 0 0 1-432.213333 23.168l-16.64-16.682667a29.696 29.696 0 0 0-41.813334-2.346666 30.122667 30.122667 0 0 0 0 43.136 367.274667 367.274667 0 0 0 264.362667 113.152 364.032 364.032 0 0 0 272.682667-120.576 28.757333 28.757333 0 0 0 0-41.258667 29.696 29.696 0 0 0-46.378667 1.408z" p-id="4595"></path></svg>