<svg t="1624949277653" class="icon" viewBox="0 0 1024 1024" version="1.1" xmlns="http://www.w3.org/2000/svg" p-id="4279" width="32" height="32"><path d="M502.1184 51.2a449.2288 449.2288 0 1 0 450.9696 449.2288A450.3552 450.3552 0 0 0 502.1184 51.2z m383.2832 415.488h-117.4528a590.8992 590.8992 0 0 0-90.624-306.432 382.7712 382.7712 0 0 1 208.0768 306.4832v-0.0512z m-416.1536-344.064v345.088H304.0256c5.9904-171.6736 76.6464-315.392 165.2224-345.088z m0 411.4944v345.1392c-88.576-29.7472-159.232-173.568-165.2224-345.088h165.2224z m66.7136 344.1152v-343.8592h165.2224c-6.9632 171.3152-76.6464 314.1632-165.2224 343.9104z m0-411.5456v-345.088c88.576 29.696 159.232 173.5168 165.2224 345.088h-165.2224zM324.864 161.2288a591.0016 591.0016 0 0 0-90.5728 306.432H116.8384A390.7584 390.7584 0 0 1 324.864 161.28zM119.808 534.1184h117.4528a590.848 590.848 0 0 0 90.624 306.4832 380.5696 380.5696 0 0 1-208.0768-306.176v-0.3072z m559.4624 306.4832a591.0016 591.0016 0 0 0 90.624-306.4832h117.4528a391.68 391.68 0 0 1-207.9744 306.4832h-0.1024z" p-id="4280"></path></svg>