<svg t="1624703394870" class="icon" viewBox="0 0 1024 1024" version="1.1" xmlns="http://www.w3.org/2000/svg" p-id="4160" width="32" height="32"><path d="M512 51.2c-253.7472 0-460.8 205.824-460.8 460.8 0 253.7472 205.824 460.8 460.8 460.8 253.7472 0 460.8-205.824 460.8-460.8 0-253.7472-206.1312-460.8-460.8-460.8z m0 856.4736A395.776 395.776 0 0 1 116.3264 512 395.776 395.776 0 0 1 512 116.3264 395.6224 395.6224 0 0 1 907.6736 512 395.776 395.776 0 0 1 512 907.6736z m235.9296-186.4704a239.616 239.616 0 0 0-135.168-158.208 176.8448 176.8448 0 0 0-94.9248-326.2464A176.9984 176.9984 0 0 0 340.8896 413.696c0 62.976 32.5632 118.272 82.0224 149.2992a237.056 237.056 0 0 0-135.4752 158.208 31.5904 31.5904 0 0 0 22.4256 38.4 31.4368 31.4368 0 0 0 38.4-22.7328 175.104 175.104 0 0 1 169.2672-130.8672 175.104 175.104 0 0 1 169.2672 130.8672c4.3008 16.896 21.504 26.7264 38.4 22.4256a30.976 30.976 0 0 0 22.7328-38.0928z m-230.0928-421.4784a113.92 113.92 0 1 1 0 227.9424 113.92 113.92 0 1 1 0-227.9424z" p-id="4161"></path></svg>