<?xml version="1.0" encoding="UTF-8"?>
<svg fill="currentColor" width="18px" height="18px" viewBox="0 0 18 18" version="1.1" xmlns="http://www.w3.org/2000/svg" xmlns:xlink="http://www.w3.org/1999/xlink">
    <title>权限</title>
    <g id="页面-2" stroke="none" stroke-width="1" fill="none" fill-rule="evenodd">
        <g id="首页-改4" transform="translate(-1136.000000, -251.000000)">
            <g id="操作" transform="translate(1116.000000, 58.000000)">
                <g id="编组-3备份-8" transform="translate(0.000000, 182.000000)">
                    <g id="权限" transform="translate(20.000000, 11.000000)">
                        <rect id="矩形备份-3" fill-opacity="0.01" x="0" y="0" width="18" height="18"></rect>
                        <path d="M9.01517594,0.0376848224 L9.01517593,0.0376848245 C9.16764139,-0.0125616011 9.33220658,-0.0125616011 9.48467062,0.0376847824 L16.9845973,2.51267008 L16.9845973,2.51267008 C17.2921533,2.61402795 17.4998427,2.90133694 17.4998427,3.22516329 L17.4998427,9.00011142 C17.4998427,11.8508296 15.3616194,14.1098146 13.457379,15.5753046 L13.4573801,15.5753037 C12.2527498,16.4949062 10.9527932,17.2824176 9.57992248,17.9242889 L9.56042269,17.9325388 L9.55442274,17.9355388 L9.55292277,17.9355388 C9.55292277,17.9355388 9.55217278,17.9362894 9.24992476,17.2500456 L8.94767734,17.9362894 L8.94542735,17.9355394 L8.93942742,17.9325394 L8.91992763,17.9242895 L8.91992798,17.9242896 C8.81206462,17.8756695 8.70505977,17.8251674 8.59896159,17.7728063 L8.59896199,17.7728065 C7.34384022,17.1595085 6.15254117,16.4234219 5.04249887,15.5753274 C3.13748493,14.1098251 1,11.8508523 1,9.00011658 L1,3.22516845 L1,3.22498342 C1,2.90115706 1.20784048,2.61389853 1.51542111,2.51261677 L9.0153478,0.0376314665 L9.01517594,0.0376848224 Z M9.24992328,17.2500291 L8.94767586,17.9362728 L8.94767586,17.9362728 C9.14025148,18.0210721 9.35959333,18.0210721 9.55217071,17.9362728 L9.24992329,17.2500291 L9.24992328,17.2500291 Z M9.24992328,16.4212868 L9.249924,16.4212868 C10.411581,15.8531322 11.5143934,15.1718454 12.542381,14.3873187 C14.3873655,12.9653259 15.9998615,11.0993442 15.9998615,9.00010935 L15.9998615,3.76741186 L9.249924,1.53992685 L2.49998646,3.76741186 L2.49998646,9.00010935 C2.49998646,11.0993442 4.11172134,12.9653171 5.95744947,14.3873012 L5.95745054,14.387302 C6.98543983,15.171834 8.08825576,15.8531224 9.24992508,16.4212868 L9.24992328,16.4212868 Z M9.24992328,4.50013962 L9.24992322,4.50013962 C8.4215039,4.50013962 7.74993788,5.17170564 7.74993788,6.00012496 C7.74993788,6.82854429 8.4215039,7.5001103 9.24992322,7.5001103 L9.24992315,7.5001103 C10.0783425,7.5001103 10.7499085,6.82854429 10.7499085,6.00012496 C10.7499085,5.17170564 10.0783425,4.50013962 9.24992315,4.50013962 L9.24992328,4.50013962 Z M6.24994909,6.00012496 L6.24994909,6.00012542 C6.24994909,4.34328677 7.59308112,3.00015122 9.24992328,3.00015122 C10.9067619,3.00015122 12.2498975,4.34328325 12.2498975,6.00012542 C12.2498975,6.00012542 12.2498975,6.00012542 12.2498975,6.00012542 L12.2498975,6.00012542 C12.2498975,7.65696406 10.9067637,9.00009961 9.24992328,9.00009961 C7.59308464,9.00009961 6.24994909,7.65696582 6.24994909,6.00012542 L6.24994909,6.00012496 Z M9.24992328,7.5001103 L9.24992325,7.5001103 C9.66413291,7.5001103 9.99991592,7.83589331 9.99991592,8.25010297 C9.99991592,8.25010297 9.99991592,8.25010297 9.99991592,8.25010297 L9.99991592,14.2500514 L9.99991592,14.2500514 C9.99991592,14.664261 9.66413291,15.000044 9.24992325,15.000044 C8.83571359,15.000044 8.49993058,14.664261 8.49993058,14.2500514 L8.49993058,8.25010297 L8.49993058,8.25010309 C8.49993058,7.83589342 8.83571359,7.5001103 9.24992325,7.5001103 C9.24992326,7.5001103 9.24992326,7.5001103 9.24992327,7.5001103 L9.24992328,7.5001103 Z M8.49993062,10.5000845 L8.49993062,10.5000844 C8.49993062,10.0858747 8.83571362,9.75009171 9.24992328,9.75009171 C9.24992329,9.75009171 9.24992329,9.75009171 9.2499233,9.75009171 L11.4999083,9.75009171 L11.4999083,9.75009171 C11.914118,9.75009171 12.249901,10.0858747 12.249901,10.5000844 C12.249901,10.914294 11.914118,11.2500771 11.4999083,11.2500771 L9.24992327,11.2500771 L9.24992331,11.2500771 C8.83571365,11.2500771 8.49993062,10.914294 8.49993062,10.5000844 C8.49993062,10.5000844 8.49993062,10.5000844 8.49993062,10.5000844 L8.49993062,10.5000845 Z" id="形状" fill="currentColor" fill-rule="nonzero"></path>
                    </g>
                </g>
            </g>
        </g>
    </g>
</svg>