<svg t="1624246261969" class="icon" viewBox="0 0 1024 1024" version="1.1" xmlns="http://www.w3.org/2000/svg" p-id="4553" width="32" height="32"><path d="M590.901895 54.110316c45.056 0 84.021895 26.085053 99.058526 62.895158h79.548632c51.738947 0 93.507368 38.804211 93.507368 85.800421v352.094316c0 17.893053-15.629474 32.175158-35.031579 32.175157-19.509895 0-35.085474-14.282105-35.085474-32.175157V202.805895c0-11.749053-10.617263-21.450105-23.390315-21.450106h-79.009685c-13.904842 38.319158-53.409684 65.913263-99.597473 65.913264H379.957895c-46.187789 0-85.692632-27.594105-99.597474-65.913264H201.943579c-12.773053 0-23.390316 9.701053-23.390316 21.450106v623.454316c0 11.749053 10.617263 21.450105 23.390316 21.450105h259.880421c19.402105 0 35.031579 14.336 35.031579 32.175158 0 17.893053-15.629474 32.229053-35.031579 32.229052H201.943579c-51.738947 0-93.453474-38.319158-93.453474-85.854315V202.805895c0-47.481263 41.714526-85.800421 93.453474-85.800421h80.141474c15.036632-36.810105 53.355789-62.895158 98.465684-62.895158z m207.117473 595.86021a31.797895 31.797895 0 0 1 45.487158 0 32.336842 32.336842 0 0 1 0 45.972211l-79.710315 79.76421 79.76421 79.656421a31.797895 31.797895 0 0 1 0 45.487158 31.797895 31.797895 0 0 1-45.541053 0l-79.710315-79.710315-79.710316 79.76421a31.797895 31.797895 0 0 1-45.487158 0 31.797895 31.797895 0 0 1 0-45.541053l79.76421-79.710315-79.76421-79.710316a31.797895 31.797895 0 0 1 0-45.487158 31.797895 31.797895 0 0 1 45.487158 0l79.76421 79.76421zM527.737263 531.941053c17.893053 0 32.175158 14.282105 32.175158 32.175158a32.067368 32.067368 0 0 1-32.175158 32.175157H337.111579a32.067368 32.067368 0 0 1-32.175158-32.175157c0-17.893053 14.282105-32.229053 32.175158-32.229053z m153.276632-166.103579c17.893053 0 32.229053 14.282105 32.229052 32.175158a32.067368 32.067368 0 0 1-32.229052 32.229052h-343.848421a32.067368 32.067368 0 0 1-32.229053-32.229052c0-17.893053 14.282105-32.175158 32.175158-32.175158z m-89.573053-247.322948H380.550737c-19.456 0-35.031579 14.282105-35.031579 32.175158 0 17.893053 15.575579 32.229053 35.031579 32.229053h210.351158c19.456 0 35.570526-14.336 35.570526-32.229053 0-17.893053-15.521684-32.175158-35.031579-32.175158z" p-id="4554"></path></svg>