<svg t="1626160081877" class="icon" viewBox="0 0 1024 1024" version="1.1" xmlns="http://www.w3.org/2000/svg" p-id="5711" width="64" height="64"><path d="M820.2 356.2c-65-112-183.5-179.1-310.7-179.7-63.2-0.3-125.4 16-181.3 48.3-43.9 25.4-81.3 59-110.5 99-83.8 114.4-93.5 268.5-21.4 393.4 99.3 172 319 231.2 491.3 132.6 51.7-36.1 96.5-81 134.5-134.9 9.7-13.8 28.7-17 42.5-7.3s17 28.7 7.3 42.5c-42.3 60-92.5 110.2-150.6 150.6l-2.1 1.4C517.7 1018.5 260 949.4 143.6 747.9c-84.3-146-72.9-326.2 25-459.9 34.2-46.8 78-86.1 129.2-115.7 65.3-37.7 138.2-56.8 212.1-56.5 137.9 0.6 267.2 68.2 345.8 182.6V149.3c0-16.8 13.6-30.5 30.5-30.5 16.8 0 30.5 13.6 30.5 30.5v237.3c0 16.8-13.6 30.5-30.5 30.5H650.9c-16.8 0-30.5-13.6-30.5-30.5 0-16.8 13.6-30.5 30.5-30.5h169.3z" p-id="5712"></path></svg>