<svg t="1624604573611" class="icon" viewBox="0 0 1024 1024" version="1.1" xmlns="http://www.w3.org/2000/svg" p-id="3893" width="32" height="32"><path d="M917.617778 245.475556h-127.488V175.957333c0-57.514667-46.421333-104.334222-103.537778-104.334222H338.204444a104.391111 104.391111 0 0 0-104.277333 104.334222v69.518223h-127.431111a34.702222 34.702222 0 1 0 0 69.518222H917.617778a34.702222 34.702222 0 1 0 0-69.518222zM303.388444 175.957333c0-19.171556 15.644444-34.816 34.759112-34.816h348.501333c19.000889 0 33.962667 15.303111 33.962667 34.816v69.518223H303.388444V175.957333zM755.484444 952.32H268.686222a104.448 104.448 0 0 1-104.277333-104.334222l1.308444-417.166222a34.759111 34.759111 0 0 1 69.518223 0l-1.308445 417.166222c0 19.228444 15.644444 34.816 34.759111 34.816h486.798222a34.759111 34.759111 0 0 0 34.759112-34.816l-0.227556-417.166222a34.759111 34.759111 0 0 1 69.518222 0l0.284445 417.166222c0 57.514667-46.819556 104.334222-104.334223 104.334222zM407.722667 465.635556c23.153778 0 34.702222 11.605333 34.702222 34.759111v208.611555c0 23.153778-11.548444 34.759111-34.702222 34.759111-23.210667 0-34.759111-11.605333-34.759111-34.759111V500.394667c0-23.153778 11.548444-34.702222 34.702222-34.702223z m208.554666 0c23.210667 0 34.759111 11.605333 34.759111 34.759111v208.611555c0 23.153778-11.548444 34.759111-34.702222 34.759111-23.210667 0-34.816-11.605333-34.816-34.759111V500.394667c0-23.153778 11.605333-34.702222 34.759111-34.702223z" p-id="3894"></path></svg>