<svg t="1626060302159" class="icon" viewBox="0 0 1024 1024" version="1.1" xmlns="http://www.w3.org/2000/svg" p-id="3757" width="32" height="32"><path d="M703.1808 222.976a44.4416 44.4416 0 0 1-44.4416-44.4416H378.624a44.4416 44.4416 0 1 1-88.9344 0H151.8592a17.7664 17.7664 0 0 0-17.8176 17.7664v674.3552c0 9.8304 7.9872 17.8176 17.8176 17.8176h720.2816a17.7664 17.7664 0 0 0 17.8176-17.8176V196.352a17.7664 17.7664 0 0 0-17.8176-17.8176h-124.4672c0 24.576-19.968 44.4416-44.4928 44.4416z m-369.0496-155.648c24.576 0 44.4928 19.968 44.4928 44.544h280.064a44.4416 44.4416 0 1 1 88.9856 0h120.0128c49.152 0 88.9344 39.7824 88.9344 88.8832v666.9312c0 49.152-39.7824 88.9344-88.9344 88.9344H156.3136c-49.152 0-88.9344-39.7824-88.9344-88.9344V200.7552c0-49.152 39.7824-88.9344 88.9344-88.9344h133.376c0-24.576 19.9168-44.4416 44.4416-44.4416z m88.9344 442.5216h177.8688c24.576 0 44.4416 14.8992 44.4416 33.28 0 18.432-19.8656 33.3824-44.4416 33.3824H423.0656c-24.576 0-44.4416-14.8992-44.4416-33.3312 0-18.432 19.9168-33.3312 44.4416-33.3312z" p-id="3758"></path></svg>