<svg t="1625052354879" class="icon" viewBox="0 0 1024 1024" version="1.1" xmlns="http://www.w3.org/2000/svg" p-id="4015" width="32" height="32"><path d="M254.208 957.7984a124.1088 124.1088 0 0 1-124.416-124.4672V191.7952c0-66.7648 54.272-124.416 124.416-124.416h267.008c27.136 0 37.632 7.8848 37.632 35.0208s-10.4448 30.6176-37.632 30.6176H254.208c-21.504 0-52.3776 42.9568-52.3776 61.0304v641.536c0 18.1248 28.672 55.5008 52.3776 55.5008h379.0336l222.5664-193.024V488.2944c0-27.136 14.08-43.1104 41.216-43.1104s34.9184 15.9744 34.9184 43.1104v235.3152l-264.7552 234.24H254.208z" p-id="4016"></path><path d="M906.3936 90.0096a28.16 28.16 0 0 0-28.16-28.16h-198.912a28.16 28.16 0 1 0 0 56.32h131.0208l-190.72 190.72a28.16 28.16 0 1 0 39.7824 39.7824l190.72-190.72v141.7216a28.0576 28.0576 0 0 0 28.16 28.16 28.16 28.16 0 0 0 28.1088-28.16V90.0096z" p-id="4017"></path></svg>