<svg t="1624332573950" class="icon" viewBox="0 0 1024 1024" version="1.1" xmlns="http://www.w3.org/2000/svg" p-id="3761" width="32" height="32"><path d="M552.96 966.4c-15.4624 0-30.8736-4.0448-45.056-12.0832l-137.8816-78.848a77.9264 77.9264 0 0 1-39.1168-67.5328V428.8L89.9584 232.7552a100.864 100.864 0 0 1-31.744-113.2544A100.9152 100.9152 0 0 1 154.3168 51.712h666.0096c43.776 0 81.4592 26.624 96.1024 67.7888a100.864 100.864 0 0 1-31.744 113.2544l-240.9984 196.096v446.6688c0 32.768-16.896 62.0544-45.2096 78.4896-13.824 8.1408-29.4912 12.4416-45.5168 12.4416zM154.3168 118.9376c-22.7328 0-30.72 17.664-32.6656 23.04a33.792 33.792 0 0 0 10.752 38.5536l248.6272 202.2912a46.2336 46.2336 0 0 1 17.152 36.096v389.0176c0 3.7888 2.048 7.2192 5.2736 9.1136l137.9328 78.7968a23.04 23.04 0 0 0 23.3472-0.0512 22.9376 22.9376 0 0 0 11.6736-20.2752V418.9184c0-14.08 6.2464-27.2384 17.2032-36.096l248.6272-202.24a33.7408 33.7408 0 0 0 10.752-38.5536 33.7408 33.7408 0 0 0-32.6656-23.04H154.3168z" p-id="3762"></path><path d="M914.2784 517.6832h-192.512a33.6896 33.6896 0 0 1 0-67.328h192.512a33.6896 33.6896 0 0 1 0 67.328z m0 136.3968h-192.512a33.6896 33.6896 0 0 1 0-67.328h192.512a33.6896 33.6896 0 0 1 0 67.328z m0 133.0688h-192.512a33.6896 33.6896 0 0 1 0-67.328h192.512a33.6896 33.6896 0 0 1 0 67.328z" p-id="3763"></path></svg>