<?xml version="1.0" encoding="UTF-8"?>
<svg width="20px" height="20px" viewBox="0 0 20 20" version="1.1" xmlns="http://www.w3.org/2000/svg" xmlns:xlink="http://www.w3.org/1999/xlink">
    <path d="M2.36151929,2.35064787 L10.8734496,2.35064787 L14.4184641,5.76108206 L14.4184641,8.04694249 L15.7819312,8.04694249 L15.7819312,5.74175949 C15.7819312,5.39008866 15.6358454,5.05001137 15.3826301,4.80461469 L11.8103463,1.36712889 C11.5629744,1.12946124 11.2376901,1 10.8948755,1 L2.31477185,1 C1.59018647,1 1,1.58547397 1,2.3042737 L1,16.6957263 C1,17.414526 1.59018647,18 2.31477185,18 L8.55750337,18 L8.55750337,16.6474199 L2.3634671,16.6474199 L2.3634671,2.35064787 L2.36151929,2.35064787 Z M17.7998625,16.693794 L16.204606,15.1112753 C17.2486322,13.6234371 17.1005987,11.5578541 15.7644009,10.2323255 C15.0378677,9.51159354 14.0717539,9.11354853 13.0433101,9.11354853 C12.0148664,9.11354853 11.0487525,9.51159354 10.3222194,10.2323255 C9.59568617,10.9530575 9.19443728,11.9114571 9.19443728,12.931689 C9.19443728,13.9519209 9.59568617,14.9103205 10.3222194,15.6310525 C11.0721263,16.3749716 12.0577182,16.7478972 13.0433101,16.7478972 C13.8126951,16.7478972 14.5820801,16.5218231 15.24044,16.0677427 L16.8356965,17.6502614 C17.1025465,17.9149807 17.5330125,17.9149807 17.7998625,17.6502614 C18.0667125,17.3874744 18.0667125,16.9585133 17.7998625,16.693794 Z M11.2863854,14.6765174 C10.8169631,14.2108434 10.5579044,13.592521 10.5579044,12.9336213 C10.5579044,12.2747215 10.8169631,11.6563992 11.2863854,11.1907252 C11.7558076,10.7250511 12.3791069,10.4680609 13.0433101,10.4680609 C13.7075134,10.4680609 14.3308126,10.7250511 14.8002349,11.1907252 C15.7682965,12.1510571 15.7682965,13.7161855 14.8002349,14.6765174 C13.8321732,15.6368493 12.2563948,15.6368493 11.2863854,14.6765174 L11.2863854,14.6765174 Z M4.74563891,4.79881791 C4.36971155,4.79881791 4.06390536,5.10218231 4.06390536,5.47510798 C4.06390536,5.84803364 4.36971155,6.15139805 4.74563891,6.15139805 L10.4098708,6.15139805 C10.7857982,6.15139805 11.0916044,5.84803364 11.0916044,5.47510798 C11.0916044,5.10218231 10.7857982,4.79881791 10.4098708,4.79881791 L4.74563891,4.79881791 Z M8.14651542,8.53773585 L4.74563891,8.53773585 C4.36971155,8.53773585 4.06390536,8.84110025 4.06390536,9.21402591 C4.06390536,9.58695158 4.36971155,9.89031598 4.74563891,9.89031598 L8.14651542,9.89031598 C8.52244278,9.89031598 8.82824898,9.58695158 8.82824898,9.21402591 C8.82824898,8.84110025 8.52244278,8.53773585 8.14651542,8.53773585 L8.14651542,8.53773585 Z M4.74563891,13.6311662 L5.85589069,13.6311662 C6.23181805,13.6311662 6.53762424,13.3278018 6.53762424,12.9548761 C6.53762424,12.5819504 6.23181805,12.278586 5.85589069,12.278586 L4.74563891,12.278586 C4.36971155,12.278586 4.06390536,12.5819504 4.06390536,12.9548761 C4.06390536,13.3278018 4.36776374,13.6311662 4.74563891,13.6311662 Z" id="形状"></path>
</svg>
