<svg t="1625553874725" class="icon" viewBox="0 0 1024 1024" version="1.1" xmlns="http://www.w3.org/2000/svg" p-id="3754" width="32" height="32"><path d="M758.9888 962.56a30.72 30.72 0 0 1-24.7808-8.192l-197.12-131.7376-98.8672 98.816c-8.192 8.192-32.9216 16.3328-41.1136 8.192a45.056 45.056 0 0 1-25.9072-39.9872V709.12a30.72 30.72 0 0 1 8.192-24.7808l312.832-337.92a40.8064 40.8064 0 0 1 57.7536 56.32l-303.872 330.5984v65.6384l57.7536-49.3056a38.8608 38.8608 0 0 1 49.2544-8.192l181.0944 115.2L874.1376 174.08 182.784 512l156.3136 98.816a39.7312 39.7312 0 0 1 8.192 57.7536 50.944 50.944 0 0 1-56.32 16.3328l-214.016-140.8A42.8032 42.8032 0 0 1 59.136 512c0-16.3328 8.448-24.4736 24.7808-32.9216L906.24 66.5088a36.864 36.864 0 0 1 41.1136 0c16.64 8.192 16.64 24.7808 16.64 41.1136l-163.8912 823.1424c0 16.5888-8.192 24.7808-24.7808 32.9216l-16.384-1.1264z" p-id="3755"></path></svg>