<svg t="1623911094256" class="icon" viewBox="0 0 1024 1024" version="1.1" xmlns="http://www.w3.org/2000/svg" p-id="4205" width="32" height="32"><path d="M215.637333 931.584c-88.576 0-129.834667-44.373333-129.834666-139.52V417.536c0-24.832 13.781333-42.496 37.845333-48.554667l45.994667-19.456c6.4-3.072 13.738667-4.693333 21.461333-4.693333 20.053333 0 38.912 11.093333 48.256 28.245333l271.658667 371.882667 261.504-381.312c7.68-17.194667 26.666667-28.245333 48.64-28.245333 12.501333 0 24.448 3.626667 33.706666 10.24l57.6 39.936 0.597334 0.512c7.125333 6.826667 23.68 24.874667 23.68 46.293333v359.68c0 89.984-51.157333 139.52-144.085334 139.52H215.637333z m-61.184-139.52c0 60.288 27.221333 81.493333 61.184 81.493333h577.024c46.677333 0 80.426667-35.285333 80.426667-81.493333v-349.354667l-43.861333-38.741333-256.64 374.186667c-5.12 7.509333-11.776 14.037333-19.498667 19.114666a75.306667 75.306667 0 0 1-41.770667 12.501334 74.453333 74.453333 0 0 1-60.16-29.866667L180.693333 409.6l-26.24 26.837333v355.584z"  p-id="4206"></path><path d="M247.296 324.864l1.877333-190.293333 0.554667-1.536c6.784-17.706667 30.506667-47.658667 76.586667-47.658667 25.386667 0 52.736 9.045333 83.626666 27.648 32.298667 18.474667 64.554667 36.992 96.768 55.594667 16.810667-9.685333 46.08-26.368 96.64-55.210667 30.378667-18.133333 57.472-27.008 82.773334-27.008 46.08 0 69.802667 29.866667 76.586666 47.530667l0.298667 0.768 2.133333 11.904v177.109333c-0.853333 45.013333-30.378667 73.984-75.306666 73.984-55.637333 0-136.533333-47.914667-183.509334-79.232-46.933333 31.573333-127.914667 79.914667-183.722666 79.914667-44.928 0-74.453333-28.842667-75.306667-73.514667z m83.2 21.973333c29.824-5.333333 87.296-36.949333 134.144-68.949333V217.386667c-16.085333-9.301333-45.354667-26.154667-98.346667-56.533334-19.626667-11.776-50.816-15.274667-56.362666-16.128V346.88c-6.229333 3.541333 0.64 3.541333 20.522666 0z m374.613333-1.578666V141.269333c-5.845333 0.853333-39.765333 4.266667-58.325333 15.36-33.024 18.773333-66.005333 37.589333-98.986667 56.490667V276.906667c46.933333 31.701333 127.488 63.018667 157.312 68.309333z" p-id="4207"></path></svg>