<svg t="1625553919096" class="icon" viewBox="0 0 1024 1024" version="1.1" xmlns="http://www.w3.org/2000/svg" p-id="3886" width="32" height="32"><path d="M837.5296 502.784l134.656 233.472-134.6048 233.472H568.32l-134.5024-233.472L568.32 502.784h269.2096z m-36.096 62.6176h-197.0176L505.9072 736.256l98.5088 170.8544h197.0176l98.5088-170.8544-98.5088-170.8544zM139.0592 892.16l-5.5808-1.1264c-15.872-4.1984-23.8592-15.36-23.8592-33.4336 0-20.0704 9.8304-31.5904 29.44-34.56h239.9744c13.824 5.7344 20.6848 17.2544 20.6848 34.56s-6.912 28.8256-20.6848 34.56H139.0592z m564.9408-264.1408v0.0512a108.1344 108.1344 0 0 1 107.776 100.4544l0.256 7.68a108.1344 108.1344 0 0 1-100.352 107.8784l-7.68 0.3072a108.1344 108.1344 0 0 1-107.7248-100.4544l-0.256-7.68a108.0832 108.0832 0 0 1 108.032-108.2368z m0 62.6176a45.568 45.568 0 0 0-5.632 90.7264l5.6832 0.3584a45.568 45.568 0 0 0 5.632-90.7264l-5.632-0.3584zM864.3584 51.2C924.2624 51.2 972.8 99.328 972.8 158.72v330.24l-2.2528 5.376c-5.9392 11.776-16.6912 17.664-32.3072 17.664-17.8176 0-29.3376-7.68-34.56-23.04V190.1056l-374.1696 236.1856L120.32 195.9936V588.8c0 21.0944 17.5104 38.4 39.3216 38.4H396.8c18.3296 4.2496 27.5456 15.7696 27.5456 34.56 0 18.7904-9.216 30.3104-27.5456 34.56H159.6416a107.9808 107.9808 0 0 1-108.1344-99.7888L51.2 588.8512V158.72a107.9808 107.9808 0 0 1 100.7104-107.264L159.5904 51.2h704.768z m0.0512 69.12H159.5904c-3.4816 0-0.6656 9.0624 3.84 20.6336l364.032 204.9024 340.1216-214.7328h0.0512c0.4096-6.4-0.256-10.8032-3.2256-10.8032z" p-id="3887"></path></svg>