<svg t="1623911078381" class="icon" viewBox="0 0 1024 1024" version="1.1" xmlns="http://www.w3.org/2000/svg" p-id="4078" width="32" height="32"><path d="M829.525333 85.333333a109.141333 109.141333 0 0 1 108.928 101.973334l0.213334 7.168v635.050666A109.141333 109.141333 0 0 1 829.525333 938.666667H194.474667A109.141333 109.141333 0 0 1 85.333333 829.525333V194.474667A109.141333 109.141333 0 0 1 194.474667 85.333333h635.050666z m0 59.52H194.474667c-25.6 0-46.634667 19.370667-49.322667 44.202667l-0.298667 5.418667v635.050666c0 27.392 22.229333 49.621333 49.621334 49.621334h635.050666c27.392 0 49.621333-22.186667 49.621334-49.621334V194.474667c0-27.392-22.186667-49.621333-49.621334-49.621334zM309.205333 577.92l44.714667 44.672 44.714667-44.672a25.429333 25.429333 0 1 1 36.053333 36.053333L389.973333 658.645333l44.714667 44.714667a25.429333 25.429333 0 1 1-36.053333 36.096l-44.714667-44.714667-44.714667 44.714667a25.344 25.344 0 0 1-18.005333 7.424 25.429333 25.429333 0 0 1-18.048-43.52l44.672-44.714667-44.672-44.672a25.429333 25.429333 0 1 1 36.053333-36.053333z m459.861334 117.632a25.472 25.472 0 0 1 0 50.901333h-177.408a25.472 25.472 0 0 1 0-50.901333h177.408z m0-112.853333a25.472 25.472 0 0 1 0 50.901333h-177.408a25.472 25.472 0 0 1 0-50.901333h177.408z m-415.146667-352.426667c14.08 0 25.472 11.434667 25.472 25.472v63.232h63.232a25.472 25.472 0 0 1 0 50.944H379.349333v63.232a25.472 25.472 0 0 1-50.901333 0V369.92H265.216a25.472 25.472 0 0 1 0-50.901333h63.232V255.744c0-14.08 11.434667-25.472 25.472-25.472z m415.146667 88.746667a25.472 25.472 0 0 1 0 50.901333h-177.408a25.472 25.472 0 0 1 0-50.944h177.408z" p-id="4079"></path></svg>