<svg t="1624703322204" class="icon" viewBox="0 0 1024 1024" version="1.1" xmlns="http://www.w3.org/2000/svg" p-id="4028" width="32" height="32"><path d="M899.072 483.0208c-21.6064 0-39.0656 16.0768-39.0656 35.9936v189.5936c0 39.7312-34.9696 71.9872-78.1312 71.9872H173.2096l114.3296-105.3696-55.296-50.8928L51.2 791.1424 232.2944 972.8l55.2448-50.8928-76.7488-69.376h571.0848c86.272 0 156.2112-64.4096 156.2112-143.9232v-189.5936c0-19.9168-17.4592-35.9936-39.0144-35.9936zM124.928 540.9792c21.6064 0 39.0656-16.0768 39.0656-35.9936V315.392c0-39.7312 34.9696-71.9872 78.1312-71.9872h608.6656l-114.3296 105.3696 55.296 50.8928L972.8 232.9088 791.7056 51.2l-55.2448 50.8928 76.7488 69.376H242.1248c-86.272 0-156.2112 64.4096-156.2112 143.9232v189.5936c0 19.9168 17.4592 35.9936 39.0144 35.9936z" p-id="4029"></path></svg>