<svg t="1624355612198" class="icon" viewBox="0 0 1024 1024" version="1.1" xmlns="http://www.w3.org/2000/svg" p-id="4026" width="32" height="32"><path d="M806.115556 667.192889c-41.984 0-99.328-17.294222-146.090667-43.975111-48.469333-27.761778-77.596444-60.984889-77.824-88.917334 0-2.958222 0.170667-11.548444 0.170667-28.273777 0-14.904889 0.170667-19.512889 4.266666-26.567111 5.973333-10.24 20.536889-25.429333 43.633778-48.184889a233.813333 233.813333 0 0 0 84.252444-179.370667 231.936 231.936 0 0 0-70.144-166.513778A239.843556 239.843556 0 0 0 475.136 16.384c-64 0-124.131556 24.462222-169.301333 69.006222a231.936 231.936 0 0 0-70.144 166.513778c0 69.176889 30.72 134.542222 84.309333 179.370667 48.071111 47.274667 48.071111 48.526222 48.071111 80.896v21.674666c0 28.046222-29.013333 61.44-77.710222 89.258667-46.762667 26.737778-104.106667 44.032-146.204445 44.032-46.819556 0-84.935111 37.546667-84.935111 83.626667v65.080889c0 22.186667 18.318222 40.277333 40.846223 40.277333h750.136888a40.789333 40.789333 0 0 0 29.127112-12.060445 39.651556 39.651556 0 0 0 11.662222-28.16v-65.137777c0-46.08-38.115556-83.626667-84.935111-83.626667z m3.185777 108.430222H140.970667v-24.860444c0-1.706667 1.479111-3.072 3.242666-3.072 56.32 0 130.730667-22.129778 189.724445-56.433778 74.695111-43.463111 115.882667-99.384889 115.882666-157.354667v-21.731555c0-24.632889-0.967111-45.340444-13.425777-68.664889-10.808889-20.423111-29.411556-40.448-59.847111-70.371556l-0.113778-0.113778a42.211556 42.211556 0 0 0-2.503111-2.275555 153.770667 153.770667 0 0 1-56.433778-118.784c0-85.504 70.712889-155.022222 157.639111-155.022222 86.926222 0 157.639111 69.518222 157.639111 155.022222 0 45.852444-20.48 89.144889-56.263111 118.670222l-1.649778 1.422222-1.137778 1.024c-30.094222 29.582222-48.412444 49.265778-59.164444 68.323556-11.605333 20.593778-13.880889 39.310222-13.880889 64.625778a1480.760889 1480.760889 0 0 1-0.227555 27.875555c0 58.026667 41.130667 113.891556 115.882666 157.411556 58.993778 34.247111 133.461333 56.376889 189.724445 56.376889 1.820444 0 3.242667 1.422222 3.242666 3.072v24.860444z m55.523556 224.597333H105.756444a36.067556 36.067556 0 1 1 0-72.135111h759.068445a36.067556 36.067556 0 1 1 0 72.135111z" p-id="4027"></path></svg>