<?xml version="1.0" encoding="UTF-8"?>
<svg width="31px" height="31px" viewBox="0 0 31 31" version="1.1" xmlns="http://www.w3.org/2000/svg" xmlns:xlink="http://www.w3.org/1999/xlink">
    <title>数据</title>
    <g id="页面-4" stroke="none" stroke-width="1" fill="none" fill-rule="evenodd">
        <g id="首页-改8" transform="translate(-574.000000, -193.000000)" fill-rule="nonzero">
            <g id="总额" transform="translate(420.000000, 160.000000)">
                <g id="数据" transform="translate(154.000000, 33.000000)">
                    <path d="M15.4386265,0 C23.9649753,0 30.877253,6.9122416 30.877253,15.4386265 C30.877253,23.9649753 23.9650114,30.877253 15.4386265,30.877253 C6.91227778,30.877253 0,23.9650114 0,15.4386265 C0,6.91227778 6.9122416,0 15.4386265,0 Z" id="路径" fill="#EBEEF4"></path>
                    <path d="M21.0625217,8.7734384 L21.0625217,19.601576 L23.3828369,19.601576 C23.8099948,19.601576 24.1562752,19.9478565 24.1562752,20.3750144 C24.1562752,20.8021723 23.8099948,21.1484528 23.3828368,21.1484528 L7.77343843,21.1484528 C7.34628046,21.1484528 7,20.8021723 7,20.3750144 C7,19.9478565 7.34628046,19.601576 7.7734384,19.601576 L10.234384,19.6015761 L10.234384,14.1875074 C10.2343839,13.7603496 10.5806645,13.4140692 11.0078224,13.4140692 C11.4349803,13.4140691 11.7812608,13.7603496 11.7812608,14.1875076 L11.7812608,19.6015762 L14.8750144,19.6015762 L14.8750144,11.3347059 C14.8750143,10.9075481 15.2212949,10.5612676 15.6484528,10.5612676 C16.0756107,10.5612675 16.4218912,10.9075481 16.4218912,11.334706 L16.4218912,19.6015764 L19.5156448,19.6015764 L19.5156448,8.77343875 C19.5156447,8.34628092 19.8619253,8 20.2890832,8 C20.7162412,8 21.0625217,8.34628046 21.0625217,8.7734384 Z" id="形状" fill="#364A63"></path>
                </g>
            </g>
        </g>
    </g>
</svg>