<?xml version="1.0" encoding="UTF-8"?>
<svg width="20px" height="20px" viewBox="0 0 20 20" version="1.1" xmlns="http://www.w3.org/2000/svg" xmlns:xlink="http://www.w3.org/1999/xlink">
    <g id="页面-1" stroke="none" stroke-width="1" fill="none" fill-rule="evenodd">
        <g id="商户后台首页" transform="translate(-687.000000, -286.000000)" fill="#798BFF" fill-rule="nonzero">
            <g id="编组-3" transform="translate(403.000000, 270.000000)">
                <g id="提示备份" transform="translate(284.000000, 16.000000)">
                    <path d="M10.9737862,11.357165 C10.9599698,11.1352276 11.0986887,10.8993671 11.3900496,10.6495621 C11.6814105,10.3998852 12.0075365,10.1223406 12.3682996,9.81705661 C12.7290626,9.51179394 13.0619794,9.16839211 13.3672634,8.78689385 C13.6725688,8.40528881 13.8390058,7.96474533 13.8667453,7.46526341 C13.8945062,6.92409749 13.8390058,6.41769671 13.7002869,5.94584752 C13.5615681,5.47412647 13.332605,5.06832676 13.013526,4.72840572 C12.6943188,4.38846334 12.2815148,4.11783766 11.7751141,3.91661415 C11.2687133,3.71551876 10.6755278,3.61491767 9.99566437,3.61491767 C9.14921442,3.61491767 8.44504956,3.76410025 7.88306301,4.06235866 C7.32120459,4.36063841 6.86671662,4.72140145 6.51987671,5.14466913 C6.17303681,5.56780868 5.93015065,6.00491409 5.79143178,6.4558145 C5.6527129,6.9067149 5.59022961,7.28486053 5.60415275,7.5901659 C5.61796912,7.95082216 5.73249333,8.21455033 5.94753322,8.38100871 C6.1625731,8.5474671 6.39497421,8.63425181 6.64477922,8.64117066 C6.89445611,8.64808952 7.12341914,8.57879416 7.33154017,8.43304964 C7.5396612,8.28730513 7.6437217,8.07574604 7.6437217,7.79830829 C7.6437217,7.63172177 7.69576264,7.42706019 7.79982314,7.18428081 C7.90388364,6.94150142 8.04616874,6.70907896 8.2265716,6.48703479 C8.40693177,6.26509741 8.62545244,6.07769024 8.88215496,5.92517637 C9.13885749,5.772513 9.42675894,5.69621335 9.74585936,5.69621335 C10.3702438,5.69621335 10.8697257,5.85231479 11.2444332,6.16449634 C11.6190126,6.47667787 11.7924753,6.86863986 11.7647571,7.34038227 C11.7647571,7.5762428 11.695355,7.79474211 11.5566361,7.99596562 C11.4178105,8.19718914 11.2408884,8.39138703 11.0258271,8.57879418 C10.8108086,8.7660732 10.5818456,8.95337358 10.3390662,9.1406526 C10.09618,9.32793162 9.86732377,9.52225765 9.65217711,9.72348116 C9.43715857,9.92457654 9.25675571,10.1431613 9.11113932,10.3790645 C8.96539481,10.6149177 8.88563573,10.8716276 8.87169124,11.1490653 L8.89253324,11.9400363 C8.89253324,12.1481573 8.98969625,12.3458146 9.18389414,12.5332218 C9.3781988,12.7205222 9.63490132,12.8211232 9.95402308,12.8349396 C10.2731448,12.8211232 10.5263666,12.7170627 10.7136669,12.5227581 C10.900946,12.3285388 10.987752,12.1064947 10.9738289,11.8568178 L10.9738289,11.357165 L10.9737862,11.357165 Z M9.9123177,16.4771216 C10.2731021,16.4771216 10.5749267,16.3557853 10.8177061,16.1128991 C11.0605922,15.8701197 11.1819285,15.5752994 11.1819285,15.2283527 C11.1819285,14.8675897 11.0605922,14.5658505 10.8177061,14.3229644 C10.5749267,14.080185 10.2731021,13.9587419 9.9123177,13.9587419 C9.55166143,13.9587419 9.24983683,14.080185 9.00705745,14.3229644 C8.76417129,14.5658505 8.64283498,14.8675897 8.64283498,15.2283527 C8.64283498,15.5752994 8.76417129,15.8701197 9.00705745,16.1128991 C9.24983685,16.3557853 9.55166145,16.4771216 9.9123177,16.4771216 Z M9.89160385,0.784313725 C11.1819286,0.784313725 12.3925796,1.03055255 13.5233648,1.52311561 C14.6542568,2.01570002 15.6428637,2.68176845 16.4891855,3.52117141 C17.3356141,4.36059572 18.0015758,5.34574319 18.4872413,6.47663517 C18.9729069,7.60742038 19.2156863,8.81807143 19.2156863,10.1083962 C19.2156863,11.398849 18.9729069,12.6059339 18.4872413,13.7299283 C18.0015758,14.8537947 17.3356141,15.8389422 16.4891855,16.685264 C15.6428637,17.5316926 14.6542568,18.1976542 13.5233648,18.6833198 C12.3925796,19.1689853 11.1819286,19.4117647 9.89160385,19.4117647 C8.601151,19.4117647 7.39406614,19.1689853 6.27007166,18.6833198 C5.14620532,18.1976542 4.16105784,17.5316926 3.31473603,16.685264 C2.46830745,15.8389422 1.80234579,14.8537947 1.31668023,13.7299283 C0.831014673,12.6059125 0.588235294,11.3988277 0.588235294,10.1083962 C0.588235294,8.81807143 0.831014673,7.60742038 1.31668023,6.47663517 C1.80234579,5.34574319 2.46830743,4.36059572 3.31473603,3.52117141 C4.16105786,2.68176845 5.14620532,2.01570002 6.27007166,1.52311561 C7.39406612,1.03055255 8.601151,0.784313725 9.89160385,0.784313725 Z" id="形状"></path>
                </g>
            </g>
        </g>
    </g>
</svg>
