<svg t="1624355666262" class="icon" viewBox="0 0 1024 1024" version="1.1" xmlns="http://www.w3.org/2000/svg" p-id="4158" width="32" height="32"><path d="M334.1312 956.6208H111.8208a44.4416 44.4416 0 0 1-44.4416-44.4416V400.8448c0-24.576 19.9168-44.4416 44.4416-44.4416h222.3104V111.8208c0-24.576 19.968-44.4416 44.4928-44.4416h266.752c24.576 0 44.4928 19.9168 44.4928 44.4416v422.4h222.3104c23.2448 0 42.5984 17.92 44.3392 41.1136l0.1024 3.3792v333.4656c0 23.2448-17.92 42.5984-41.1136 44.3392l-3.328 0.1024H334.1312z m0-533.504H134.0416v466.8416h200.0896V423.0656z m555.8272 177.8176h-200.0896v289.024h200.0896v-289.024z m-266.752-466.8928H400.7936v755.9168h222.3104V134.0416z" p-id="4159"></path></svg>