<svg t="1624246180636" class="icon" viewBox="0 0 1024 1024" version="1.1" xmlns="http://www.w3.org/2000/svg" p-id="4157" width="32" height="32"><path d="M512 972.8a460.8 460.8 0 1 1 0-921.6 460.8 460.8 0 0 1 0 921.6z m0-70.912a389.888 389.888 0 1 0 0-779.776 389.888 389.888 0 0 0 0 779.776z m-210.0736-372.2752a6.1952 6.1952 0 0 1-2.56-5.12c0-2.0992 0.9216-4.096 2.56-5.1712l122.5728-112.64a5.632 5.632 0 0 1 5.9904-0.3072 6.144 6.144 0 0 1 2.9696 5.4784v85.8624h279.552c18.432 0 33.4336 16.0256 33.4336 35.584 0 19.5584-15.0016 35.6352-33.536 35.6352H433.4592v67.9936a6.2464 6.2464 0 0 1-2.9696 5.4784 5.2736 5.2736 0 0 1-5.9904-0.3072l-122.5728-112.4864z" p-id="4158"></path></svg>