<?xml version="1.0" encoding="UTF-8"?>
<svg width="18px" height="18px" viewBox="0 0 18 18" version="1.1" xmlns="http://www.w3.org/2000/svg" xmlns:xlink="http://www.w3.org/1999/xlink">
    <title>切换</title>
    <g id="页面-2" stroke="none" stroke-width="1" fill="none" fill-rule="evenodd">
        <g id="订单列表-5" transform="translate(-1221.000000, -353.000000)">
            <g id="转入备份-4" transform="translate(1206.000000, 346.000000)">
                <g id="切换" transform="translate(15.000000, 7.000000)">
                    <rect id="矩形" fill-opacity="0.01" fill="#FFFFFF" x="0" y="0" width="18" height="18"></rect>
                    <path fill="currentColor" d="M2.7201162,6.75686455 L16.4013821,6.75686455 C16.694945,6.75686455 16.9589453,6.58429734 17.0703204,6.31067202 L17.0703204,6.31067204 C17.1822655,6.04378853 17.1222847,5.73574306 16.9183827,5.53035864 L12.6008777,1.21285361 L12.6008777,1.21285364 C12.3265864,0.933017177 11.8773776,0.928522641 11.5975412,1.20281286 C11.5941609,1.20612618 11.5908138,1.20947326 11.5875005,1.21285359 L11.5875004,1.21285365 C11.3076639,1.48714499 11.3031694,1.93635371 11.5774598,2.21619017 C11.5807731,2.21957048 11.5841202,2.22291756 11.5875005,2.2262309 L14.6785041,5.3172345 L2.72974022,5.3172345 C2.33442726,5.3172345 2.00982837,5.64173488 2.00982837,6.03704784 L2.00982837,6.03704925 C2.00347099,6.42808252 2.31523307,6.750312 2.70626634,6.75676806 C2.71088254,6.75686455 2.71549937,6.75686455 2.72011615,6.75686455 L2.7201162,6.75686455 Z M16.4013821,11.2256142 L2.7201162,11.2256142 C2.42655335,11.2256142 2.16255305,11.3981779 2.05117792,11.6718033 L2.05117791,11.6718033 C2.01479902,11.7583096 1.99744844,11.8516275 2.00030285,11.9454286 C2.00030285,12.1276163 2.07111544,12.3201165 2.2134281,12.4521167 L5.81111979,16.0601209 L5.81111972,16.0601208 C6.08541106,16.3399573 6.53461978,16.3444518 6.81445624,16.0701617 C6.81783655,16.0668483 6.82118363,16.0635013 6.82449698,16.0601209 L6.82449702,16.0601209 C7.10433348,15.7858296 7.10882802,15.3366208 6.83453767,15.0567844 C6.83122435,15.0534041 6.82787725,15.050057 6.82449694,15.0467436 L4.45330668,12.6755534 L16.4013831,12.6755534 C16.796696,12.6755534 17.1211964,12.351053 17.1211964,11.95574 C17.1205089,11.5604271 16.796696,11.2256142 16.4013831,11.2256142 L16.4013821,11.2256142 Z" id="形状" ></path>
                </g>
            </g>
        </g>
    </g>
</svg>