<?xml version="1.0" encoding="UTF-8"?>
<svg fill="currentColor" width="24px" height="24px" viewBox="0 0 24 24" version="1.1" xmlns="http://www.w3.org/2000/svg" xmlns:xlink="http://www.w3.org/1999/xlink">
    <title>订单-默认</title>
    <g id="页面-2" stroke="none" stroke-width="1" fill="none" fill-rule="evenodd">
        <g id="首页-改4" transform="translate(-110.000000, -214.000000)">
            <g id="左侧nav" transform="translate(0.000000, 61.000000)">
                <g id="编组-5备份" transform="translate(87.000000, 143.000000)">
                    <g id="订单-默认" transform="translate(23.000000, 10.000000)">
                        <rect id="矩形" fill-opacity="0.01" fill="#FFFFFF" x="0" y="0" width="24" height="24"></rect>
                        <g id="订单" transform="translate(2.000000, 1.000000)" fill="#6E82A5" fill-rule="nonzero">
                            <path fill="currentColor" d="M12.6729261,0.03437632 L12.6729261,0.03437632 C13.8920664,0.03437632 14.9535543,0.867051078 15.2441791,2.05104455 L15.9500141,2.05104455 L15.950014,2.05104455 C17.7830385,2.05100054 19.2867583,3.50279336 19.3511342,5.33468587 L19.3531509,5.45417351 L19.3531509,18.56253 L19.3531509,18.5626116 C19.3531509,20.3956361 17.9013217,21.8993323 16.0694386,21.9636373 L15.9500325,21.9656511 L3.85001846,21.9656511 L3.8500186,21.9656511 C2.01699409,21.9656511 0.513274289,20.5139022 0.448898433,18.6820097 L0.446881766,18.5625219 L0.446881766,5.4541654 L0.446881766,5.45408428 C0.446881766,3.62105977 1.89870857,2.1173636 3.73059399,2.05305865 L3.85000056,2.05104481 L4.55583551,2.05104481 C4.83816996,0.893477583 5.88229955,0.03437632 7.1270885,0.03437632 L12.6729261,0.03437632 Z M15.0652076,3.81563051 L15.0652077,3.81563051 C14.6269272,4.7396061 13.6955877,5.32844194 12.6729262,5.32813235 L7.12707849,5.32813235 L7.12707837,5.32813235 C6.10442394,5.32844074 5.17308444,4.7396061 4.73479688,3.81563051 L3.84998335,3.81563051 L3.84998341,3.81563051 C2.98103696,3.81563051 2.26315636,4.49385529 2.21395988,5.36140739 L2.21143906,5.45417432 L2.21143906,18.5625308 L2.21143906,18.5626378 C2.21143906,19.4315843 2.88976774,20.14942 3.7573222,20.1985597 L3.8500889,20.2010806 L15.950103,20.2010806 L15.950103,20.2010806 C16.8190494,20.2010806 17.53693,19.5228559 17.5861265,18.6553038 L17.5885405,18.5625309 L17.5885405,5.45417446 L17.5885405,5.45406718 C17.5885405,4.58512074 16.9102118,3.86728504 16.0426573,3.81814528 L15.9499977,3.81563051 L15.0652076,3.81563051 Z M12.6729332,1.79896958 L7.12708552,1.79896958 L7.12708548,1.79896958 C6.63980941,1.79896958 6.24479358,2.19398542 6.24479358,2.68126149 C6.24479358,3.16853756 6.63980941,3.5635534 7.12708548,3.5635534 L12.6729331,3.5635534 L12.6729331,3.5635534 C13.1602092,3.5635534 13.555225,3.16853756 13.555225,2.68126149 C13.555225,2.19398542 13.1602092,1.79896958 12.6729331,1.79896958 L12.6729332,1.79896958 Z" id="形状"></path>
                            <path fill="currentColor" d="M11.8480086,10.834005 C11.7233421,10.7753383 11.6665083,10.6965049 11.6775084,10.5975048 C11.6885084,10.4985047 11.730675,10.4196709 11.8040085,10.3610045 C11.8260085,10.3463378 11.8975086,10.2895044 12.0185087,10.1905043 C12.1395089,10.0915042 12.2880091,9.97233773 12.4640093,9.83300388 C12.1560089,9.48100347 11.7893422,9.20416946 11.364008,9.00250291 C10.9386738,8.80083637 10.4766733,8.70000256 9.97800637,8.70000256 C9.51600584,8.70000256 9.08333902,8.78616929 8.68000486,8.95850286 C8.2766707,9.13083675 7.92467029,9.36733703 7.62400364,9.66800369 C7.32333698,9.96867034 7.0868367,10.3206708 6.91450281,10.7240049 C6.74216892,11.1273391 6.65600251,11.5600059 6.65600251,12.0220064 C6.65600251,12.4766733 6.74216924,12.9056738 6.91450281,13.3090079 C7.0868367,13.7123421 7.32333698,14.0643425 7.62400364,14.3650092 C7.92467029,14.6656758 8.2766707,14.9021761 8.68000486,15.07451 C9.08333902,15.2468439 9.51600584,15.3330103 9.97800637,15.3330103 C10.3593405,15.3330103 10.7205072,15.2725102 11.0615076,15.1515101 C11.402508,15.0305099 11.7141747,14.8600097 11.9965087,14.6400095 C12.2788427,14.4200092 12.520843,14.1615089 12.7225096,13.8645086 C12.9241761,13.5675082 13.0726763,13.2430078 13.1680101,12.8910074 C13.2193435,12.7223409 13.3146766,12.5830007 13.4540104,12.473007 C13.5933443,12.3630068 13.7583445,12.3080068 13.949011,12.3080068 C14.176345,12.3080068 14.3688452,12.3886735 14.5265117,12.550007 C14.6841782,12.7113409 14.7630119,12.9020074 14.7630119,13.1220077 C14.7630119,13.2246745 14.7446786,13.3236742 14.7080119,13.4190081 C14.5540117,13.9323423 14.3266777,14.4053429 14.0260111,14.8380097 C13.7253444,15.2706765 13.367844,15.6428443 12.9535098,15.954511 C12.5391757,16.2661777 12.0790088,16.5100116 11.5730082,16.6860119 C11.0670076,16.8620121 10.5353407,16.9500122 9.97800637,16.9500122 C9.29600558,16.9500122 8.65434175,16.8216783 8.05300413,16.5650117 C7.45166974,16.3083451 6.92916591,15.9563447 6.48550231,15.5090105 C6.04183549,15.0616763 5.68983508,14.5391757 5.42950108,13.9415087 C5.16916709,13.3438417 5.03900063,12.7040072 5.03900063,12.0220064 C5.03900063,11.3400056 5.16916709,10.6983418 5.42950108,10.0970042 C5.68983508,9.49566979 6.04183549,8.97316596 6.48550231,8.52950236 C6.92916914,8.08583554 7.45166974,7.73383513 8.05300413,7.47350113 C8.65433853,7.21316714 9.29600558,7.08300068 9.97800637,7.08300068 C10.7333409,7.08300068 11.4336712,7.23883455 12.0790088,7.55050122 C12.7243433,7.86216789 13.2743471,8.28566839 13.7290107,8.8210027 C13.8976772,8.69633625 14.0388448,8.58816874 14.1525112,8.49650232 C14.2661777,8.40483559 14.3376778,8.34800215 14.3670115,8.32600212 C14.4110115,8.28933545 14.4586782,8.26183542 14.5100116,8.24350203 C14.5613451,8.22516864 14.6090118,8.22516864 14.6530118,8.24350203 C14.6970119,8.26183542 14.7355119,8.30033546 14.7685119,8.35900216 C14.801512,8.41766886 14.8253454,8.50566864 14.840012,8.62300247 C14.8473454,8.68900255 14.8546787,8.80083637 14.8620121,8.95850286 C14.8693454,9.11616935 14.8766787,9.29950326 14.8840121,9.5085035 C14.8913454,9.71750374 14.8950121,9.93383769 14.8950121,10.1575043 C14.8950121,10.3811708 14.8913454,10.5920048 14.8840121,10.790005 C14.8766787,11.039339 14.818012,11.2190055 14.7080119,11.3290056 C14.6493452,11.3876723 14.5613454,11.4206724 14.4440116,11.4280057 C14.3266777,11.4353391 14.2020113,11.4243391 14.0700111,11.3950057 C13.8720109,11.3510056 13.6538443,11.303339 13.4155104,11.2520055 C13.1771764,11.2006721 12.9498435,11.1475054 12.7335096,11.0925053 C12.5171756,11.0375053 12.3265091,10.9861719 12.1615089,10.9385052 C11.9965087,10.8908385 11.8920086,10.8560051 11.8480086,10.834005 Z" id="路径"></path>
                        </g>
                    </g>
                </g>
            </g>
        </g>
    </g>
</svg>