<?xml version="1.0" encoding="UTF-8"?>
<svg fill="currentColor" width="18px" height="18px" viewBox="0 0 18 18" version="1.1" xmlns="http://www.w3.org/2000/svg" xmlns:xlink="http://www.w3.org/1999/xlink">
    <title>退出</title>
    <g id="页面-2" stroke="none" stroke-width="1" fill="none" fill-rule="evenodd">
        <g id="首页-改4" transform="translate(-1136.000000, -291.000000)">
            <g id="操作" transform="translate(1116.000000, 58.000000)">
                <g id="编组-3备份-9" transform="translate(0.000000, 222.000000)">
                    <g id="退出" transform="translate(20.000000, 11.000000)">
                        <rect id="矩形备份-5" fill-opacity="0.01" fill="currentColor" x="0" y="0" width="18" height="18"></rect>
                        <path fill="currentColor" d="M8.9666716,1.29999981 L8.96667161,1.29999981 C9.16917668,1.29999981 9.33333813,1.46416375 9.33333813,1.6666678 C9.33333813,1.66666781 9.33333813,1.66666781 9.33333813,1.66666782 L9.33333813,2.40000258 L9.33333813,2.40000258 C9.33333813,2.60250766 9.16917565,2.7666691 8.96667161,2.7666691 C8.9666716,2.7666691 8.96667159,2.7666691 8.96667159,2.7666691 L2.73332527,2.7666691 L2.73332527,15.2333445 L8.96667159,15.2333445 L8.96667159,15.2333445 C9.16917667,15.2333445 9.33333813,15.397507 9.33333813,15.6000111 C9.33333813,15.6000111 9.33333813,15.6000111 9.33333813,15.6000111 L9.33333813,16.3333458 L9.33333813,16.3333458 C9.33333813,16.5358509 9.16917564,16.7000124 8.96667159,16.7000124 C8.96667158,16.7000124 8.96667158,16.7000124 8.96667157,16.7000124 L2.73332526,16.7000124 L2.73332526,16.7000124 C1.95181044,16.7000124 1.30756547,16.0872154 1.26848965,15.3066768 L1.26665631,15.2333434 L1.26665631,2.76666791 L1.26665631,2.76666699 C1.26665631,1.98515218 1.87945499,1.34090893 2.65999183,1.3018331 L2.73332428,1.29999981 L8.96667059,1.29999981 L8.9666716,1.29999981 Z M12.3110364,5.07410567 L15.4592401,8.22230934 L15.4592401,8.22230935 C15.8688462,8.63199623 15.8904956,9.28915418 15.5087402,9.72491109 L15.4592401,9.77771116 L12.3110364,12.9259148 L12.3110364,12.9259148 C12.1678531,13.0690551 11.9357521,13.0690551 11.7925698,12.9259148 L11.2741031,12.4074481 L11.2741031,12.4074481 C11.1309628,12.2642648 11.1309628,12.0321638 11.274103,11.8889814 L13.4290056,9.73333987 L6.03333601,9.73333987 L6.03333602,9.73333987 C5.83083094,9.73333988 5.6666695,9.5691774 5.6666695,9.36667335 C5.6666695,9.36667334 5.6666695,9.36667333 5.6666695,9.36667331 L5.6666695,8.63333855 L5.6666695,8.63333859 C5.6666695,8.43083351 5.83083197,8.26667207 6.03333602,8.26667207 C6.03333603,8.26667207 6.03333604,8.26667207 6.03333605,8.26667207 L13.4290056,8.26667207 L11.2741031,6.1110305 L11.2741031,6.11103051 C11.1309629,5.96784713 11.1309629,5.73574617 11.2741031,5.59256381 L11.7925698,5.07409712 L11.7925698,5.07409713 C11.9357532,4.93095689 12.1678541,4.93095689 12.3110365,5.0740971 L12.3110364,5.07410567 Z" id="形状"  fill-rule="nonzero"></path>
                    </g>
                </g>
            </g>
        </g>
    </g>
</svg>