<?xml version="1.0" encoding="UTF-8"?>
<svg width="34px" height="24px" viewBox="0 0 34 24" version="1.1" xmlns="http://www.w3.org/2000/svg" xmlns:xlink="http://www.w3.org/1999/xlink">
    <title>上传</title>
    <g id="页面-2" stroke="none" stroke-width="1" fill="none" fill-rule="evenodd">
        <g id="实名认证-个人" transform="translate(-703.000000, -362.000000)" fill="#8094AE" fill-rule="nonzero">
            <g id="编组" transform="translate(282.000000, 208.000000)">
                <g id="输入框备份-8" transform="translate(0.000000, 117.000000)">
                    <g id="上传" transform="translate(421.000000, 37.000000)">
                        <path d="M17.1453033,11.9258731 C17.3575609,11.8753253 17.5840531,11.8879623 17.7891925,11.9637838 L17.7891925,11.9637838 L17.9082177,12.0152121 C17.9847287,12.0540765 18.0552343,12.1019055 18.1177711,12.1575412 L18.1177711,12.1575412 L21.7509956,15.3818821 C21.7512731,15.382128 21.7515503,15.3823741 21.7518274,15.3826203 L21.8355194,15.4668245 C22.1423626,15.8174396 22.1141136,16.3241642 21.7509956,16.6460179 L21.7509956,16.6460179 L21.6472996,16.7264348 C21.2525826,16.9927988 20.6869544,16.9659497 20.3267111,16.6460178 L20.3267111,16.6460178 L18.412084,14.9469873 L18.412084,22.9233323 C18.412084,23.4176257 17.9615834,23.8173976 17.4045672,23.8173976 C16.8475509,23.8173976 16.3970504,23.4176257 16.3970504,22.9233323 L16.3970504,22.9233323 L16.3970504,14.9460444 L14.4805638,16.6460178 L14.4805638,16.6460178 L14.377409,16.7260316 C13.9825744,16.9927484 13.4165457,16.9661271 13.0558824,16.6461357 C12.6624315,16.2970542 12.6623718,15.731027 13.0557496,15.3818807 L13.0557496,15.3818807 L16.6913632,12.1575412 C16.7851455,12.0740626 16.8968865,12.0081709 17.0199417,11.9637838 L17.0199417,11.9637838 Z M16.7952227,0.182637523 C20.971915,0.182637523 24.7576069,2.45162588 26.4007651,5.88386559 C30.774837,6.55423775 34.0000595,10.0527132 34.0000595,14.2472538 C34.0000595,18.9224164 29.9168672,22.7256711 24.8973458,22.7256711 L24.8973458,22.7256711 L23.8409533,22.7256711 C23.2849564,22.7252908 22.834581,22.3250121 22.8350103,21.8316232 L22.8350103,21.8316232 C22.8354519,21.3368019 23.2865302,20.937149 23.8425271,20.9375397 L23.8425271,20.9375397 L24.8973053,20.9375397 C28.8051849,20.9375397 31.9849854,17.9357148 31.9849854,14.2472534 C31.9849854,10.7784779 29.2301854,7.91478172 25.5773061,7.58737419 C25.1906553,7.55257683 24.8610329,7.32354478 24.730227,6.99879494 L24.730227,6.99879494 L24.6246175,6.75045954 C23.3399589,3.88039656 20.2304088,1.97076761 16.7954677,1.97076761 C12.1496811,1.97076761 8.36983295,5.37307157 8.36983295,9.55511929 L8.36983295,9.55511929 L8.34433292,10.2344487 C8.32572918,10.7158544 7.88069058,11.0976461 7.33787862,11.0978711 L7.33787862,11.0978711 L7.10956108,11.1021067 C4.23443288,11.2090738 2.0150131,13.3293869 2.0150131,16.0167625 C2.0150131,18.7303085 4.43725029,20.937304 7.41544126,20.937304 L7.41544126,20.937304 L9.97314799,20.9373039 C10.5291449,20.937684 10.9795202,21.3379627 10.979091,21.8313516 L10.979091,21.8313516 C10.9786493,22.326173 10.5275711,22.7256711 9.97157414,22.7254352 L9.97157414,22.7254352 L7.41546175,22.7254352 C3.32642575,22.7254352 2.23820962e-13,19.7158317 2.23820962e-13,16.0167631 C2.23820962e-13,12.622002 2.77259698,9.80922015 6.35667927,9.36914107 C6.44911688,4.30269232 11.0957004,0.182637523 16.7952227,0.182637523 Z" id="形状结合"></path>
                    </g>
                </g>
            </g>
        </g>
    </g>
</svg>