<?xml version="1.0" encoding="UTF-8"?>
<svg width="18px" height="18px" viewBox="0 0 18 18" version="1.1" xmlns="http://www.w3.org/2000/svg" xmlns:xlink="http://www.w3.org/1999/xlink">
    <title>上传备份 2</title>
    <g id="页面-2" stroke="none" stroke-width="1" fill="none" fill-rule="evenodd">
        <g id="订单列表-调单" transform="translate(-1125.000000, -559.000000)" fill="#526484" fill-rule="nonzero">
            <g id="商户列表" transform="translate(378.000000, 430.000000)">
                <g id="操作" transform="translate(727.000000, 70.000000)">
                    <g id="上传备份" transform="translate(20.000000, 59.000000)">
                        <path fill="currentColor" d="M15.76575,11.575 L15.76575,13.072375 C15.76575,14.002975 15.01335,14.755375 14.08275,14.755375 L3.9105,14.755375 C2.9799,14.755375 2.2275,14.002975 2.2275,13.072375 L2.2275,11.575 C2.2275,11.1097 1.8513,10.7335 1.386,10.7335 C0.9207,10.7335 0.5445,11.1097 0.5445,11.575 L0.5445,13.047625 C0.5445,14.913775 2.056725,16.426 3.922875,16.426 L14.070375,16.426 C15.936525,16.426 17.44875,14.913775 17.44875,13.047625 L17.44875,11.575 C17.44875,11.1097 17.07255,10.7335 16.60725,10.7335 C16.14195,10.7335 15.76575,11.1097 15.76575,11.575 Z" id="路径"></path>
                        <path fill="currentColor" d="M5.32125,6.043375 C5.655375,6.3775 6.199875,6.3775 6.534,6.043375 L8.14275,4.434625 L8.14275,10.65925 C8.14275,11.12455 8.51895,11.50075 8.98425,11.50075 C9.44955,11.50075 9.82575,11.12455 9.82575,10.65925 L9.82575,4.434625 L11.4345,6.043375 C11.768625,6.3775 12.313125,6.3775 12.64725,6.043375 C12.981375,5.70925 12.981375,5.16475 12.64725,4.830625 L9.640125,1.8235 C9.278775,1.46215 8.6922,1.46215 8.33085,1.8235 L5.32125,4.830625 C4.98465,5.167225 4.98465,5.70925 5.32125,6.043375 Z" id="路径"></path>
                    </g>
                </g>
            </g>
        </g>
    </g>
</svg>