<?xml version="1.0" encoding="UTF-8"?>
<svg fill="currentColor" width="18px" height="18px" viewBox="0 0 18 18" version="1.1" xmlns="http://www.w3.org/2000/svg" xmlns:xlink="http://www.w3.org/1999/xlink">
    <title>网址</title>
    <g id="页面-2" stroke="none" stroke-width="1" fill-rule="evenodd">
        <g id="首页-改4" transform="translate(-1136.000000, -171.000000)" fill="currentColor" fill-rule="nonzero">
            <g id="操作" transform="translate(1116.000000, 58.000000)">
                <g id="编组-3备份" transform="translate(0.000000, 102.000000)">
                    <g id="网址" transform="translate(20.000000, 11.000000)">
                        <path fill="currentColor" d="M9.00001047,0 L9.00001008,0 C4.02943789,0 -3.93402411e-07,4.02943828 -3.93402411e-07,9.00001047 C-3.93402411e-07,13.9705827 4.02943789,18.0000209 9.00001008,18.0000209 C13.9705823,18.0000209 18.0000206,13.9705827 18.0000206,9.00001047 L18.0000206,9.00001087 C18.0000206,4.02943868 13.9705823,0 9.00001008,0 L9.00001047,0 Z M8.35734829,5.10836728 L8.35734829,5.10836728 C7.51343911,5.03993978 6.68683912,4.83131989 5.91152514,4.49108258 C6.52880984,2.87311097 7.43415992,1.77503059 8.35734829,1.41699892 L8.35734829,5.10836728 Z M8.3573482,6.39437736 L8.3573482,8.35735782 L5.16118388,8.35735782 L5.16118388,8.35735782 C5.19630888,7.46886343 5.32015131,6.58611357 5.53086458,5.72225319 L5.53086495,5.72225319 C6.42982361,6.09968249 7.3847089,6.32676049 8.3573482,6.39440823 L8.3573482,6.39437736 Z M8.3573482,9.64334599 L8.3573482,11.6063151 L8.3573482,11.6063151 C7.38448736,11.6738871 6.42935949,11.900967 5.53018461,12.2784703 L5.53018469,12.2784703 C5.31937526,11.4146257 5.19553019,10.5318547 5.16050047,9.64334599 L8.3573482,9.64334599 Z M8.35734838,12.8923146 L8.35734838,16.584358 C7.4341651,16.2263333 6.52607459,15.1275656 5.91152504,13.5102743 L5.91152504,13.5102742 C6.68685327,13.170327 7.51348138,12.9621631 8.35734838,12.8943606 L8.35734838,12.8923146 Z M9.64335829,12.8923146 L9.64335829,12.8923146 C10.4872676,12.9607421 11.3138676,13.169362 12.0891816,13.5095993 C11.4718969,15.1275709 10.5665468,16.2263369 9.64335829,16.583683 L9.64335829,12.8923146 Z M9.64335829,11.6063045 L9.64335829,9.64264989 L12.8395222,9.64264989 L12.8395222,9.64264989 C12.8044921,10.5311581 12.6806467,11.4139325 12.4698361,12.2777753 L12.469836,12.2777753 C11.5706927,11.9001791 10.6155526,11.6730941 9.64267252,11.6056204 L9.64335829,11.6063045 Z M9.64335829,8.3573359 L9.64335829,6.39436682 L9.64335829,6.39436678 C10.6162212,6.32680712 11.5713473,6.09972543 12.4705222,5.7222119 L12.4705224,5.7222119 C12.6813318,6.58605735 12.8051769,7.4688283 12.8402066,8.3573359 L9.64335829,8.3573359 Z M9.64335829,5.10837795 L9.64335829,1.41632391 C10.5665414,1.773663 11.4746319,2.87311623 12.0891815,4.49040757 L12.0891815,4.4904077 C11.3137617,4.8311372 10.4868892,5.03999897 9.64267244,5.10837795 L9.64335829,5.10837795 Z M12.2339023,2.00549048 L12.2339023,2.00549048 C12.9058923,2.31724797 13.5295596,2.72401856 14.0857604,3.21331152 L14.0857604,3.21331144 C13.8131304,3.45004687 13.5243671,3.66753424 13.2215625,3.8642038 L13.2215624,3.8642038 C12.9659234,3.20825223 12.6344541,2.58444428 12.2339023,2.00549048 L12.2339023,2.00549048 Z M4.77985459,3.86420727 L4.77985431,3.86420727 C4.47709361,3.66747245 4.18833565,3.44998684 3.91565819,3.21331293 L3.91565819,3.21331287 C4.47180266,2.72395136 5.09548054,2.31717549 5.76751589,2.00549388 L5.76751589,2.00549388 C5.36673749,2.58430559 5.03525409,3.20813991 4.77986122,3.86420727 L4.77985459,3.86420727 Z M4.36353027,5.12689464 L4.36353027,5.1268959 C4.07998742,6.18194498 3.91640168,7.26561128 3.87587526,8.35735787 L1.31825484,8.35735787 L1.31825484,8.35735787 C1.44529105,6.81141095 2.03786369,5.34026256 3.01784354,4.13786372 L3.01784246,4.13786372 C3.43497185,4.50829501 3.88544699,4.83937762 4.36353027,5.12688928 L4.36353027,5.12689464 Z M3.8758756,9.6426574 L3.87587523,9.6426574 C3.91640112,10.7343903 4.07998738,11.8180584 4.36352878,12.8731162 L4.36352878,12.8731158 C3.8854999,13.1609562 3.4350318,13.4922656 3.01785143,13.8628397 L3.01785176,13.8628397 C2.03762582,12.6605385 1.44480989,11.1893795 1.31757576,9.64336406 L3.8758756,9.6426574 Z M4.77985459,14.135816 L4.77985409,14.135816 C5.0350413,14.7918447 5.36629442,15.4156772 5.76682377,15.9945294 L5.76682377,15.9945294 C5.09483412,15.6827722 4.47116679,15.2760034 3.91496614,14.7867087 L3.91496614,14.7867084 C4.18754543,14.5499115 4.47631041,14.3324206 4.77916252,14.135816 L4.77985459,14.135816 Z M13.2201945,14.1358172 L13.2201945,14.1358172 C13.5229552,14.3325518 13.8117131,14.5500374 14.0843924,14.7867096 L14.0843924,14.7867096 C13.5282409,15.2760641 12.9045648,15.68284 12.2325347,15.9945304 L12.2325347,15.9945304 C12.633313,15.4157189 12.9647964,14.7918845 13.2201892,14.1358172 L13.2201945,14.1358172 Z M13.6365188,12.8731263 L13.6365188,12.8731264 C13.9200543,11.8180756 14.0836417,10.734411 14.1241734,9.64266222 L16.681794,9.64266222 L16.681794,9.64266222 C16.5545615,11.1886847 15.9617475,12.6598454 14.9815216,13.8621379 L14.9815216,13.8621379 C14.5648264,13.4917751 14.1148135,13.1606943 13.6372153,12.8731123 L13.6365188,12.8731263 Z M14.1241735,8.3573573 L14.1241736,8.3573573 C14.0836532,7.26562439 13.9200667,6.18195633 13.6365206,5.12689846 L13.6365206,5.1268985 C14.1142876,4.83924797 14.5645237,4.50817064 14.9815159,4.13787118 L14.9815161,4.13787118 C15.961742,5.34017255 16.5545579,6.81133149 16.6817921,8.3573573 L14.1241735,8.3573573 Z" id="形状"></path>
                    </g>
                </g>
            </g>
        </g>
    </g>
</svg>