<?xml version="1.0" encoding="UTF-8"?>
<svg fill="currentColor" width="18px" height="18px" viewBox="0 0 18 18" version="1.1" xmlns="http://www.w3.org/2000/svg" xmlns:xlink="http://www.w3.org/1999/xlink">
    <title>群组1</title>
    <g id="页面-2" stroke="none" stroke-width="1" fill="none" fill-rule="evenodd">
        <g id="首页-改4" transform="translate(-1136.000000, -211.000000)" fill="#526484" fill-rule="nonzero">
            <g id="操作" transform="translate(1116.000000, 58.000000)">
                <g id="编组-3备份-2" transform="translate(0.000000, 142.000000)">
                    <g id="群组1" transform="translate(20.000000, 11.000000)">
                        <path fill="currentColor" d="M13.2714275,8.04811299 C14.3143684,7.22513383 14.9839015,5.94983567 14.9839015,4.51818084 C14.9839015,2.03611525 12.9718829,0.0240559579 10.4899191,0.0240559579 C8.00787384,0.0240559579 5.9957942,2.03611525 5.9957942,4.51818084 C5.9957942,5.94981532 6.66536796,7.22503206 7.70826823,8.04811299 C4.94900638,9.15250161 2.99979914,11.8506415 2.99979914,15.0043569 L2.99979914,17.2513583 C2.99979914,17.6650054 3.33514575,18.0003723 3.74881317,18.0003723 L17.231025,18.0003723 C17.6446721,18.0003723 17.980039,17.6650054 17.980039,17.2513583 L17.980039,16.502385 L17.980039,15.0043365 C17.980039,11.8506415 16.03073,9.15239984 13.2714275,8.04811299 L13.2714275,8.04811299 Z M7.49382226,4.51818084 C7.49382226,2.86347045 8.83522904,1.52206366 10.4899394,1.52206366 C12.1446295,1.52206366 13.4859141,2.86347045 13.4859141,4.51818084 C13.4859141,6.17285053 12.1445481,7.51415555 10.4899394,7.51415555 C8.83520869,7.51415555 7.49382226,6.17287088 7.49382226,4.51818084 L7.49382226,4.51818084 Z M16.482011,15.7533709 C16.482011,16.1669569 16.1466033,16.5024053 15.7330173,16.5024053 L5.24682088,16.5024053 C4.83315345,16.5024053 4.49780685,16.1669773 4.49780685,15.7533709 L4.49780685,15.0042551 C4.49780685,11.6949565 7.18051864,9.01222431 10.4899191,9.01222431 C13.7992381,9.01222431 16.482011,11.6949768 16.482011,15.0042551 L16.482011,15.7533709 L16.482011,15.7533709 Z" id="形状"></path>
                        <path fill="currentColor" d="M5.9957942,8.26318993 C5.9957942,7.84958357 5.6604883,7.51415555 5.24682088,7.51415555 L5.24682088,7.51415555 C4.00579826,7.51415555 2.99979914,6.50819714 2.99979914,5.26717452 C2.99979914,4.0261519 4.00579826,3.02015278 5.24675981,3.02015278 L5.24682088,3.02015278 C5.6604883,3.02015278 5.9957942,2.68474511 5.9957942,2.27107769 C5.9957942,1.85741027 5.6604883,1.52208402 5.24682088,1.52208402 L5.24682088,1.52208402 C3.17844306,1.52208402 1.50173037,3.19881705 1.50173037,5.26717452 C1.50173037,6.40602185 2.01020506,7.42594286 2.8123421,8.11291899 C1.14271248,8.98981495 0.00370231579,10.7404317 0.00370231579,12.7572945 C0.00370231579,13.1709415 0.339048923,13.5062678 0.752716345,13.5062678 C1.16636341,13.5062678 1.50173037,13.1709415 1.50173037,12.7572945 C1.50173037,10.6890388 3.17844306,9.01226502 5.24682088,9.01226502 C5.6604883,9.01226502 5.9957942,8.676837 5.9957942,8.26318993 L5.9957942,8.26318993 L5.9957942,8.26318993 Z" id="路径"></path>
                    </g>
                </g>
            </g>
        </g>
    </g>
</svg>